<?xml version="1.0" encoding="utf-8"?>

<!DOCTYPE svg PUBLIC "-//W3C//DTD SVG 1.1//EN" "http://www.w3.org/Graphics/SVG/1.1/DTD/svg11.dtd">
<svg version="1.1" id="Layer_1" xmlns="http://www.w3.org/2000/svg" xmlns:xlink="http://www.w3.org/1999/xlink" x="0px" y="0px"
	 viewBox="0 0 1686.106 1686.106" enable-background="new 0 0 1686.106 1686.106" xml:space="preserve">
<path id="path44265" d="M1328.708,357.398c13.915-3.465,24.967-2.826,40.992,2.066c3.751,1.145,15.031,1.493,14.672,0.453
	c-0.176-0.509-1.687-1.269-3.358-1.689c-13.163-3.308-20.568-12.676-15.286-19.34l1.263-1.594l1.077,2.007
	c0.808,1.504,2.306,2.487,5.99,3.935c5.759,2.263,8.088,4.333,10.531,9.356c2.082,4.281,3.891,5.617,9.299,6.87
	c5.054,1.172,30.276,1.836,30.265,0.798c-0.004-0.401-0.547-0.728-1.205-0.726c-9.515,0.021-22.111-11.193-22.241-19.8
	c-0.09-6.002,3.245-9.288,5.086-5.009c0.758,1.761,1.952,2.86,4.442,4.089c4.88,2.409,7.868,5.221,9.894,9.309
	c3.003,6.058,7.611,9.76,14.362,11.539c7.197,1.896,27.459,1.702,21.272-0.204c-0.66-0.203-1.818-0.633-2.574-0.954
	s-3.078-1.297-5.16-2.168c-7.03-2.94-13.802-12.274-13.854-19.093c-0.043-5.697,2.731-9.507,3.629-4.983
	c0.533,2.684,1.272,3.393,7.208,6.913c4.349,2.58,7.534,6.18,9.864,11.149c3.259,6.951,8.368,10.068,17.65,10.773
	c7.171,0.544,8.706,0.089,6.768-2.008c-0.638-0.69-1.169-2.161-1.181-3.27c-0.043-4.132,3.774-6.764,5.431-3.744
	c1.012,1.844,2.149,1.703,6.04-0.748c7.176-4.52,12.909-3.646,21.654,3.301c3.941,3.131,10.674,5.931,14.17,5.895
	c2.425-0.025,1.23-1.717-2.357-3.337c-5.268-2.38-14.571-11.637-15.685-15.607c-3.061-10.913,8.502-16.139,15.507-7.009
	c4.003,5.217,4.935,6.101,6.416,6.086c0.861-0.009,1.573-0.564,1.779-1.386c0.803-3.207,3.62,0.267,3.665,4.519
	c0.063,5.976-5.431,8.569-13.234,6.248c-6.338-1.885-4.976,0.737,2.203,4.238c9.234,4.504,20.174,6.374,21.197,3.622
	c0.938-2.522,4.974-3.705,8.305-3.334c-0.241-2.228,0.594-4.788,2.884-7.198c3.946-4.152,3.543-9.282-1.488-18.995
	c-4.571-8.824-10.715-12.638-6.643-4.123c4.063,8.495-0.001,16.499-7.469,14.708c-3.773-0.905-5.611-4.419-2.33-4.454
	c2.989-0.031,2.896-3.036-0.142-4.646c-9.367-4.961-13.566-12.403-9.964-17.662c5.233-7.641,18.608-1.833,26.263,11.404
	c3.526,6.098,5.031,6.124,3.608,0.061c-0.609-2.594-2.232-5.755-5.12-9.977c-7.666-11.205-7.975-15.379-1.673-22.56
	c2.725-3.105,2.786-3.874,0.496-6.294c-2.531-2.674-1.274-4.08,3.216-3.596l3.273,0.353l5.335-0.212c0,0,2.161-1.169,3.27-1.181
	c4.132-0.043,6.764,3.774,3.744,5.431c-1.844,1.012-1.703,2.149,0.748,6.04c4.52,7.176,3.646,12.909-3.301,21.654
	c-3.131,3.941-5.933,10.674-5.896,14.17c0.025,2.425,1.718,1.23,3.338-2.357c2.38-5.268,11.636-14.573,15.605-15.686
	c10.913-3.061,16.139,8.504,7.009,15.508c-5.217,4.003-6.101,4.935-6.086,6.416c0.009,0.861,0.565,1.573,1.387,1.779
	c3.207,0.803-0.268,3.62-4.521,3.665c-5.976,0.063-8.569-5.432-6.248-13.235c1.885-6.338-0.737-4.974-4.239,2.205
	c-4.504,9.234-6.372,20.174-3.62,21.197c2.335,0.868,3.522,4.394,3.391,7.556c0.179,0.028,0.364,0.071,0.554,0.127
	c0.056,0.19,0.099,0.375,0.127,0.554c3.162-0.131,6.687,1.056,7.556,3.391c1.023,2.752,11.962,0.884,21.197-3.62
	c7.179-3.502,8.543-6.124,2.205-4.238c-7.803,2.321-13.298-0.272-13.235-6.248c0.045-4.253,2.862-7.728,3.665-4.52
	c0.206,0.822,0.918,1.378,1.779,1.387c1.481,0.015,2.414-0.869,6.416-6.086c7.005-9.13,18.57-3.904,15.508,7.009
	c-1.114,3.969-10.418,13.226-15.687,15.605c-3.587,1.62-4.782,3.313-2.357,3.338c3.495,0.036,10.229-2.766,14.17-5.896
	c8.745-6.947,14.477-7.821,21.654-3.301c3.891,2.451,5.028,2.592,6.04,0.748c1.657-3.02,5.474-0.388,5.431,3.744
	c-0.012,1.109-1.181,3.27-1.181,3.27l-0.212,5.335l0.353,3.273c0.484,4.49-0.922,5.747-3.596,3.216
	c-2.42-2.29-3.188-2.23-6.294,0.496c-7.181,6.302-11.355,5.992-22.56-1.673c-4.221-2.888-7.382-4.511-9.977-5.12
	c-6.063-1.424-6.037,0.081,0.061,3.608c13.237,7.654,19.045,21.029,11.404,26.263c-5.259,3.602-12.701-0.597-17.662-9.964
	c-1.609-3.039-4.615-3.131-4.646-0.142c-0.034,3.281-3.549,1.443-4.454-2.33c-1.791-7.467,6.213-11.532,14.708-7.469
	c8.515,4.073,4.701-2.072-4.123-6.643c-9.713-5.032-14.843-5.434-18.995-1.488c-2.41,2.29-4.97,3.125-7.198,2.884
	c0.371,3.331-0.812,7.367-3.334,8.305c-2.752,1.023-0.882,11.962,3.622,21.197c3.502,7.179,6.124,8.542,4.238,2.203
	c-2.321-7.803,0.272-13.296,6.248-13.234c4.252,0.044,7.726,2.862,4.519,3.665c-0.822,0.206-1.377,0.918-1.386,1.779
	c-0.016,1.481,0.869,2.414,6.086,6.416c9.13,7.005,3.904,18.568-7.009,15.507c-3.969-1.114-13.227-10.417-15.607-15.685
	c-1.62-3.587-3.312-4.783-3.337-2.357c-0.037,3.495,2.764,10.229,5.895,14.17c6.947,8.745,7.821,14.478,3.301,21.654
	c-2.451,3.891-2.592,5.028-0.748,6.04c3.02,1.657,0.388,5.474-3.744,5.431c-1.109-0.012-2.58-0.543-3.27-1.181
	c-2.097-1.938-2.552-0.404-2.008,6.768c0.704,9.283,3.822,14.391,10.773,17.65c4.969,2.33,8.569,5.515,11.149,9.864
	c3.521,5.935,4.229,6.675,6.913,7.208c4.524,0.898,0.714,3.672-4.983,3.629c-6.82-0.052-16.153-6.823-19.093-13.853
	c-0.871-2.082-1.846-4.405-2.168-5.16c-0.321-0.755-0.751-1.913-0.954-2.574c-1.906-6.186-2.1,14.075-0.204,21.272
	c1.779,6.751,5.481,11.359,11.539,14.362c4.088,2.026,6.9,5.014,9.309,9.894c1.229,2.49,2.328,3.685,4.089,4.442
	c4.279,1.841,0.993,5.176-5.009,5.086c-8.606-0.129-19.82-12.726-19.8-22.241c0.001-0.658-0.325-1.201-0.726-1.205
	c-1.038-0.011-0.374,25.211,0.798,30.265c1.254,5.408,2.589,7.217,6.87,9.299c5.023,2.443,7.092,4.772,9.356,10.531
	c1.448,3.684,2.431,5.182,3.935,5.99l2.007,1.077l-1.594,1.263c-6.664,5.281-16.031-2.123-19.34-15.286
	c-0.42-1.671-1.18-3.183-1.689-3.358c-1.04-0.359-0.692,10.922,0.453,14.672c5.395,17.672,5.618,29.295,0.869,45.38
	c-2.515,8.519-2.516,8.68-0.037,11.291c3.965,4.177,1.465,9.917-4.293,9.857c-5.17-0.054-7.169-5.254-3.588-9.332
	c2.321-2.642,2.266-3.198-2.213-22.52c-1.374-5.927-1.551-12.043-0.5-17.233c0.365-1.801,1.061-5.27,1.548-7.709
	s1.48-6.708,2.206-9.487c2.185-8.366,1.544-16.96-0.692-9.285c-2.276,7.813-12.954,13.568-17.601,9.485
	c-2.009-1.765-1.774-2.917,0.786-3.86c0.865-0.318,2.526-2.206,3.692-4.193c2.427-4.139,4.753-6.426,8.978-8.825
	c6.122-3.475,6.599-4.922,6.972-21.187c0.3-13.085-0.508-19.12-1.612-12.049c-1.777,11.376-14.774,21.318-21.984,16.817
	c-2.807-1.752-2.783-3.505,0.065-4.793c1.659-0.75,2.815-2.178,4.588-5.671c2.183-4.301,2.817-4.95,8.038-8.242
	c8.893-5.606,10.693-10.009,10.845-26.519c0.09-9.804-0.538-11.542-2.262-6.257c-2.068,6.343-9.123,15.179-13.376,16.753
	c-6.549,2.424-13.919,1.627-14.725-1.592c-0.419-1.673,0.026-2.044,2.43-2.018c3.011,0.032,4.331-0.963,6.745-5.082
	c2.221-3.79,4.183-5.48,12.372-10.662c6.349-4.018,7.621-6.629,7.718-15.842l0.074-7.037l-3.274,0.353
	c-4.49,0.484-5.747-0.922-3.216-3.596c2.29-2.42,2.23-3.188-0.496-6.294c-6.302-7.181-5.991-11.355,1.675-22.56
	c2.888-4.221,4.509-7.382,5.119-9.977c1.424-6.063-0.08-6.038-3.606,0.06c-7.654,13.237-21.029,19.044-26.263,11.404
	c-3.602-5.259,0.597-12.701,9.964-17.662c3.039-1.609,3.13-4.613,0.141-4.644c-3.281-0.034-1.443-3.549,2.33-4.454
	c7.467-1.791,11.533,6.213,7.47,14.708c-4.073,8.515,2.072,4.699,6.643-4.125c5.032-9.713,5.433-14.841,1.487-18.993
	c-2.278-2.397-3.116-4.943-2.888-7.162c-0.365-0.068-0.747-0.172-1.145-0.314c-0.141-0.398-0.246-0.78-0.314-1.145
	c-2.219,0.228-4.765-0.61-7.162-2.888c-4.152-3.946-9.28-3.545-18.994,1.487c-8.824,4.571-12.639,10.715-4.125,6.643
	c8.495-4.063,16.499,0.003,14.708,7.47c-0.905,3.773-4.419,5.611-4.454,2.33c-0.031-2.989-3.035-2.898-4.644,0.141
	c-4.961,9.367-12.403,13.566-17.662,9.964c-7.641-5.233-1.833-18.608,11.404-26.263c6.098-3.526,6.122-5.03,0.06-3.606
	c-2.594,0.609-5.755,2.231-9.977,5.119c-11.205,7.666-15.379,7.977-22.56,1.675c-3.105-2.725-3.874-2.786-6.294-0.496
	c-2.674,2.531-4.08,1.274-3.596-3.216l0.353-3.274l-7.037,0.074c-9.213,0.096-11.824,1.369-15.842,7.718
	c-5.182,8.189-6.872,10.151-10.662,12.372c-4.119,2.414-5.113,3.734-5.082,6.745c0.025,2.404-0.346,2.848-2.018,2.43
	c-3.219-0.806-4.016-8.176-1.592-14.725c1.574-4.254,10.41-11.308,16.753-13.376c5.286-1.724,3.547-2.352-6.257-2.262
	c-16.51,0.152-20.913,1.952-26.519,10.845c-3.292,5.222-3.941,5.855-8.242,8.038c-3.493,1.773-4.922,2.929-5.671,4.587
	c-1.287,2.848-3.041,2.872-4.793,0.065c-4.501-7.211,5.441-20.207,16.817-21.984c7.071-1.105,1.036-1.912-12.049-1.612
	c-16.264,0.373-17.712,0.85-21.187,6.972c-2.399,4.226-4.686,6.551-8.824,8.978c-1.987,1.165-3.875,2.827-4.193,3.692
	c-0.943,2.56-2.095,2.795-3.86,0.786c-4.082-4.647,1.672-15.324,9.485-17.601c7.676-2.236-0.919-2.877-9.285-0.692
	c-2.779,0.726-7.048,1.719-9.487,2.206c-2.439,0.487-5.909,1.183-7.709,1.548c-5.19,1.051-11.306,0.874-17.233-0.5
	c-6.884-1.596-11.385-2.63-14.448-3.195c-0.565-3.063-1.599-7.565-3.195-14.448c-1.374-5.927-1.551-12.043-0.5-17.233
	c0.365-1.801,1.061-5.27,1.548-7.709c0.487-2.439,1.48-6.708,2.206-9.487c2.185-8.366,1.544-16.96-0.692-9.285
	c-2.276,7.813-12.954,13.568-17.601,9.485c-2.009-1.765-1.774-2.917,0.786-3.86c0.865-0.318,2.526-2.206,3.692-4.193
	c2.427-4.139,4.753-6.426,8.978-8.824c6.122-3.475,6.599-4.922,6.972-21.187c0.3-13.085-0.508-19.12-1.612-12.049
	c-1.777,11.376-14.774,21.318-21.984,16.817c-2.807-1.752-2.783-3.505,0.066-4.793c1.659-0.75,2.815-2.178,4.587-5.671
	c2.183-4.301,2.817-4.95,8.038-8.242c8.893-5.606,10.693-10.009,10.845-26.519c0.09-9.804-0.538-11.542-2.262-6.257
	c-2.068,6.343-9.123,15.179-13.376,16.753c-6.549,2.424-13.919,1.627-14.725-1.592c-0.419-1.673,0.026-2.044,2.43-2.018
	c3.011,0.032,4.331-0.963,6.745-5.082c2.221-3.79,4.183-5.48,12.372-10.662c6.349-4.018,7.621-6.629,7.718-15.842l0.074-7.037
	l-3.274,0.353c-4.49,0.484-5.747-0.922-3.216-3.596c2.29-2.42,2.23-3.188-0.496-6.294c-6.302-7.181-5.991-11.355,1.675-22.56
	c2.888-4.221,4.51-7.382,5.119-9.977c1.424-6.063-0.08-6.038-3.606,0.06c-7.654,13.237-21.029,19.044-26.263,11.404
	c-3.602-5.259,0.597-12.701,9.964-17.662c3.039-1.609,3.13-4.613,0.141-4.644c-3.281-0.034-1.443-3.549,2.33-4.454
	c7.467-1.791,11.533,6.213,7.47,14.708c-4.073,8.515,2.072,4.699,6.643-4.125c5.031-9.713,5.433-14.841,1.487-18.993
	c-2.278-2.397-3.116-4.943-2.888-7.162c-0.365-0.068-0.747-0.172-1.145-0.314c-0.141-0.398-0.246-0.78-0.314-1.145
	c-2.219,0.228-4.765-0.61-7.162-2.888c-4.152-3.946-9.28-3.545-18.994,1.487c-8.824,4.571-12.639,10.715-4.125,6.643
	c8.495-4.063,16.499,0.003,14.708,7.47c-0.905,3.773-4.419,5.611-4.453,2.33c-0.031-2.989-3.035-2.898-4.644,0.141
	c-4.961,9.367-12.403,13.566-17.662,9.964c-7.641-5.233-1.833-18.608,11.404-26.263c6.098-3.526,6.122-5.03,0.06-3.606
	c-2.594,0.609-5.755,2.231-9.977,5.119c-11.205,7.666-15.379,7.977-22.56,1.675c-3.105-2.725-3.874-2.786-6.294-0.496
	c-2.675,2.531-4.08,1.274-3.596-3.216l0.353-3.274l-7.037,0.074c-9.213,0.096-11.824,1.369-15.842,7.718
	c-5.182,8.189-6.872,10.151-10.662,12.372c-4.119,2.414-5.113,3.734-5.082,6.745c0.025,2.404-0.346,2.848-2.018,2.43
	c-3.219-0.806-4.016-8.176-1.592-14.725c1.574-4.254,10.41-11.308,16.753-13.376c5.286-1.724,3.547-2.352-6.257-2.262
	c-16.51,0.152-20.913,1.952-26.519,10.845c-3.292,5.222-3.941,5.855-8.242,8.038c-3.493,1.773-4.922,2.929-5.671,4.587
	c-1.287,2.848-3.041,2.872-4.792,0.066c-4.501-7.211,5.441-20.207,16.817-21.984c7.071-1.105,1.036-1.912-12.049-1.612
	c-16.264,0.373-17.712,0.85-21.187,6.972c-2.399,4.226-4.686,6.551-8.825,8.978c-1.987,1.165-3.874,2.827-4.193,3.692
	c-0.943,2.56-2.095,2.795-3.86,0.786c-4.082-4.647,1.672-15.324,9.485-17.601c7.676-2.236-0.919-2.877-9.285-0.692
	c-2.779,0.726-7.048,1.719-9.487,2.206c-2.439,0.487-5.909,1.183-7.709,1.548c-5.19,1.051-11.306,0.874-17.233-0.5
	c-19.321-4.48-19.878-4.534-22.52-2.213c-4.078,3.582-9.278,1.582-9.332-3.588c-0.06-5.757,5.68-8.257,9.857-4.293
	c2.611,2.479,2.772,2.478,11.291-0.037c16.085-4.749,27.708-4.527,45.38,0.869c3.751,1.145,15.031,1.493,14.672,0.453
	c-0.176-0.509-1.687-1.269-3.358-1.689c-13.163-3.308-20.568-12.676-15.286-19.34l1.263-1.594l1.077,2.007
	c0.808,1.504,2.306,2.487,5.99,3.935c5.759,2.263,8.088,4.333,10.531,9.356c2.082,4.281,3.891,5.617,9.299,6.87
	c5.054,1.172,30.276,1.836,30.265,0.798c-0.004-0.401-0.547-0.728-1.205-0.726c-9.515,0.021-22.111-11.193-22.241-19.8
	c-0.09-6.002,3.245-9.288,5.086-5.009c0.757,1.761,1.952,2.86,4.442,4.089c4.88,2.409,7.868,5.221,9.894,9.309
	c3.003,6.058,7.611,9.76,14.362,11.539c7.197,1.896,27.459,1.702,21.272-0.204c-0.66-0.203-1.818-0.633-2.573-0.954
	c-0.755-0.321-3.078-1.297-5.16-2.168c-7.03-2.94-13.802-12.274-13.853-19.093c-0.043-5.697,2.731-9.507,3.629-4.983
	c0.533,2.684,1.272,3.393,7.208,6.913c4.349,2.58,7.534,6.18,9.864,11.149c3.259,6.951,8.368,10.068,17.651,10.773
	c7.171,0.544,8.706,0.089,6.768-2.008c-0.638-0.69-1.169-2.161-1.181-3.27c-0.043-4.132,3.774-6.764,5.431-3.744
	c1.012,1.844,2.149,1.703,6.04-0.748c7.176-4.52,12.909-3.646,21.654,3.301c3.941,3.131,10.674,5.931,14.17,5.895
	c2.425-0.025,1.23-1.717-2.357-3.337c-5.268-2.38-14.572-11.637-15.685-15.607c-3.061-10.913,8.502-16.139,15.507-7.009
	c4.002,5.217,4.935,6.101,6.416,6.086c0.861-0.009,1.573-0.564,1.779-1.386c0.803-3.207,3.62,0.267,3.664,4.519
	c0.063,5.976-5.431,8.569-13.234,6.248c-6.338-1.885-4.976,0.737,2.203,4.238c9.234,4.504,20.174,6.374,21.197,3.622
	c0.938-2.522,4.974-3.705,8.305-3.334c-0.241-2.228,0.594-4.788,2.884-7.198c3.946-4.152,3.543-9.282-1.488-18.995
	c-4.571-8.824-10.715-12.638-6.643-4.123c4.063,8.495-0.001,16.499-7.469,14.708c-3.773-0.905-5.611-4.419-2.33-4.454
	c2.989-0.031,2.896-3.036-0.142-4.646c-9.367-4.961-13.566-12.403-9.964-17.662c5.233-7.641,18.608-1.833,26.263,11.404
	c3.526,6.098,5.031,6.124,3.608,0.061c-0.609-2.594-2.232-5.755-5.12-9.977c-7.666-11.205-7.975-15.379-1.673-22.56
	c2.725-3.105,2.786-3.874,0.496-6.294c-2.531-2.674-1.274-4.08,3.216-3.596l3.273,0.353l5.335-0.212c0,0,2.161-1.169,3.27-1.181
	c4.132-0.043,6.764,3.774,3.744,5.431c-1.844,1.012-1.703,2.149,0.748,6.04c4.52,7.176,3.646,12.909-3.301,21.654
	c-3.13,3.941-5.933,10.674-5.896,14.17c0.025,2.425,1.718,1.23,3.338-2.357c2.38-5.268,11.636-14.573,15.605-15.686
	c10.913-3.061,16.139,8.504,7.009,15.508c-5.217,4.003-6.101,4.935-6.086,6.416c0.009,0.861,0.565,1.573,1.387,1.779
	c3.207,0.803-0.268,3.62-4.521,3.665c-5.976,0.063-8.569-5.432-6.248-13.235c1.885-6.338-0.737-4.974-4.238,2.205
	c-4.504,9.234-6.372,20.174-3.62,21.197c2.335,0.868,3.522,4.394,3.391,7.556c0.179,0.028,0.364,0.071,0.554,0.127
	c0.056,0.19,0.099,0.375,0.127,0.554c3.162-0.131,6.687,1.056,7.555,3.391c1.023,2.752,11.962,0.884,21.197-3.62
	c7.179-3.502,8.543-6.124,2.205-4.239c-7.803,2.321-13.298-0.272-13.235-6.248c0.045-4.252,2.862-7.728,3.665-4.52
	c0.206,0.822,0.918,1.378,1.779,1.387c1.481,0.015,2.414-0.869,6.416-6.086c7.005-9.13,18.57-3.904,15.508,7.009
	c-1.114,3.969-10.418,13.226-15.686,15.605c-3.587,1.62-4.782,3.313-2.357,3.338c3.495,0.036,10.229-2.766,14.17-5.896
	c8.745-6.947,14.478-7.821,21.654-3.301c3.891,2.451,5.028,2.592,6.04,0.748c1.657-3.02,5.474-0.388,5.431,3.744
	c-0.012,1.109-1.181,3.27-1.181,3.27l-0.212,5.335l0.353,3.273c0.484,4.49-0.922,5.747-3.596,3.216
	c-2.42-2.29-3.188-2.23-6.294,0.496c-7.181,6.302-11.355,5.992-22.56-1.673c-4.221-2.888-7.382-4.511-9.977-5.12
	c-6.063-1.424-6.037,0.081,0.061,3.608c13.237,7.654,19.045,21.029,11.404,26.263c-5.259,3.602-12.701-0.597-17.662-9.964
	c-1.609-3.039-4.615-3.131-4.646-0.142c-0.034,3.281-3.549,1.443-4.454-2.33c-1.791-7.467,6.213-11.532,14.708-7.469
	c8.515,4.073,4.701-2.072-4.123-6.643c-9.713-5.032-14.843-5.434-18.995-1.488c-2.41,2.29-4.97,3.125-7.198,2.884
	c0.371,3.331-0.812,7.367-3.334,8.305c-2.752,1.023-0.882,11.962,3.622,21.197c3.502,7.179,6.124,8.542,4.239,2.203
	c-2.321-7.803,0.272-13.296,6.248-13.234c4.253,0.044,7.726,2.862,4.519,3.665c-0.822,0.206-1.377,0.918-1.386,1.779
	c-0.016,1.481,0.869,2.414,6.086,6.416c9.13,7.005,3.904,18.568-7.009,15.507c-3.969-1.114-13.227-10.417-15.607-15.685
	c-1.62-3.587-3.312-4.782-3.337-2.357c-0.037,3.495,2.764,10.229,5.895,14.17c6.947,8.745,7.821,14.478,3.301,21.654
	c-2.45,3.891-2.592,5.028-0.748,6.04c3.02,1.657,0.388,5.474-3.744,5.431c-1.109-0.012-2.58-0.543-3.27-1.181
	c-2.097-1.938-2.552-0.404-2.008,6.768c0.704,9.283,3.822,14.391,10.773,17.65c4.969,2.33,8.569,5.515,11.149,9.864
	c3.521,5.936,4.229,6.675,6.913,7.208c4.524,0.898,0.714,3.672-4.983,3.629c-6.819-0.052-16.153-6.823-19.093-13.853
	c-0.871-2.082-1.846-4.405-2.168-5.16c-0.321-0.755-0.751-1.913-0.954-2.574c-1.906-6.186-2.1,14.075-0.204,21.272
	c1.779,6.751,5.481,11.359,11.539,14.362c4.088,2.026,6.9,5.014,9.309,9.894c1.229,2.49,2.328,3.685,4.089,4.442
	c4.279,1.841,0.993,5.176-5.009,5.086c-8.606-0.129-19.82-12.726-19.8-22.241c0.001-0.658-0.325-1.201-0.726-1.205
	c-1.039-0.011-0.374,25.211,0.798,30.265c1.254,5.408,2.589,7.217,6.87,9.299c5.023,2.443,7.093,4.772,9.356,10.531
	c1.448,3.684,2.431,5.182,3.935,5.99l2.007,1.077l-1.594,1.263c-6.664,5.281-16.032-2.124-19.34-15.286
	c-0.42-1.671-1.18-3.183-1.689-3.358c-1.041-0.359-0.692,10.922,0.453,14.672C1331.534,332.431,1332.173,343.483,1328.708,357.398z
	 M1328.708,1328.708c3.465,13.915,2.826,24.967-2.066,40.992c-1.145,3.751-1.493,15.031-0.453,14.672
	c0.509-0.176,1.269-1.687,1.689-3.358c3.308-13.163,12.676-20.568,19.34-15.286l1.594,1.263l-2.007,1.077
	c-1.504,0.808-2.487,2.306-3.935,5.99c-2.263,5.759-4.333,8.088-9.356,10.531c-4.281,2.082-5.617,3.891-6.87,9.299
	c-1.172,5.054-1.836,30.276-0.798,30.265c0.401-0.004,0.728-0.547,0.726-1.205c-0.021-9.515,11.193-22.111,19.8-22.241
	c6.002-0.09,9.288,3.245,5.009,5.086c-1.761,0.758-2.86,1.952-4.089,4.442c-2.409,4.88-5.221,7.868-9.309,9.894
	c-6.058,3.003-9.76,7.611-11.539,14.362c-1.896,7.197-1.702,27.459,0.204,21.272c0.203-0.66,0.633-1.818,0.954-2.574
	s1.297-3.078,2.168-5.16c2.94-7.03,12.274-13.802,19.093-13.854c5.697-0.043,9.507,2.731,4.983,3.629
	c-2.684,0.533-3.392,1.272-6.913,7.208c-2.58,4.349-6.18,7.534-11.149,9.864c-6.951,3.259-10.068,8.368-10.773,17.65
	c-0.544,7.171-0.089,8.706,2.008,6.768c0.69-0.638,2.161-1.169,3.27-1.181c4.132-0.043,6.764,3.774,3.744,5.431
	c-1.844,1.012-1.703,2.149,0.748,6.04c4.52,7.176,3.646,12.909-3.301,21.654c-3.131,3.941-5.932,10.674-5.895,14.17
	c0.025,2.425,1.716,1.23,3.337-2.357c2.38-5.268,11.637-14.571,15.607-15.685c10.913-3.061,16.139,8.502,7.009,15.507
	c-5.217,4.003-6.101,4.935-6.086,6.416c0.009,0.861,0.564,1.573,1.386,1.779c3.207,0.803-0.267,3.62-4.519,3.665
	c-5.976,0.063-8.569-5.431-6.248-13.234c1.885-6.338-0.737-4.976-4.239,2.203c-4.504,9.234-6.374,20.174-3.622,21.197
	c2.522,0.938,3.705,4.974,3.334,8.305c2.228-0.241,4.788,0.594,7.198,2.884c4.152,3.946,9.282,3.543,18.995-1.488
	c8.824-4.571,12.638-10.715,4.123-6.643c-8.495,4.063-16.499-0.001-14.708-7.469c0.905-3.773,4.419-5.611,4.454-2.33
	c0.031,2.989,3.036,2.896,4.646-0.142c4.961-9.367,12.403-13.566,17.662-9.964c7.641,5.233,1.833,18.608-11.404,26.263
	c-6.098,3.526-6.124,5.031-0.061,3.608c2.594-0.609,5.755-2.232,9.977-5.12c11.205-7.666,15.379-7.975,22.56-1.673
	c3.105,2.725,3.874,2.786,6.294,0.496c2.675-2.531,4.08-1.274,3.596,3.216l-0.353,3.273l0.212,5.335c0,0,1.169,2.161,1.181,3.27
	c0.043,4.132-3.774,6.764-5.431,3.744c-1.012-1.844-2.149-1.703-6.04,0.748c-7.176,4.52-12.909,3.646-21.654-3.301
	c-3.941-3.131-10.674-5.933-14.17-5.896c-2.425,0.025-1.23,1.718,2.357,3.338c5.268,2.38,14.573,11.636,15.686,15.605
	c3.061,10.913-8.504,16.139-15.508,7.009c-4.003-5.217-4.935-6.101-6.416-6.086c-0.861,0.009-1.573,0.565-1.779,1.387
	c-0.803,3.207-3.62-0.268-3.665-4.521c-0.063-5.976,5.432-8.569,13.235-6.248c6.338,1.885,4.974-0.737-2.205-4.239
	c-9.234-4.504-20.174-6.372-21.197-3.62c-0.868,2.335-4.394,3.522-7.555,3.391c-0.028,0.179-0.071,0.364-0.127,0.554
	c-0.19,0.056-0.375,0.099-0.554,0.127c0.131,3.162-1.056,6.687-3.391,7.556c-2.752,1.023-0.884,11.962,3.62,21.197
	c3.501,7.179,6.124,8.543,4.238,2.205c-2.321-7.803,0.272-13.298,6.248-13.235c4.252,0.045,7.728,2.862,4.521,3.665
	c-0.822,0.206-1.378,0.918-1.387,1.779c-0.015,1.481,0.869,2.414,6.086,6.416c9.13,7.005,3.904,18.57-7.009,15.508
	c-3.969-1.114-13.226-10.418-15.605-15.687c-1.62-3.587-3.313-4.782-3.338-2.357c-0.036,3.495,2.766,10.229,5.896,14.17
	c6.947,8.745,7.821,14.477,3.301,21.654c-2.451,3.891-2.592,5.028-0.748,6.04c3.02,1.657,0.388,5.474-3.744,5.431
	c-1.109-0.012-3.27-1.181-3.27-1.181l-5.335-0.212l-3.273,0.353c-4.49,0.484-5.747-0.922-3.216-3.596
	c2.29-2.42,2.23-3.188-0.496-6.294c-6.302-7.181-5.992-11.355,1.673-22.56c2.888-4.221,4.511-7.382,5.12-9.977
	c1.424-6.063-0.081-6.037-3.608,0.061c-7.654,13.237-21.029,19.045-26.263,11.404c-3.602-5.259,0.597-12.701,9.964-17.662
	c3.039-1.609,3.131-4.615,0.142-4.646c-3.281-0.034-1.443-3.549,2.33-4.454c7.467-1.791,11.532,6.213,7.469,14.708
	c-4.073,8.515,2.072,4.701,6.643-4.123c5.032-9.713,5.434-14.843,1.488-18.995c-2.29-2.41-3.125-4.97-2.884-7.198
	c-3.331,0.371-7.367-0.812-8.305-3.334c-1.023-2.752-11.962-0.882-21.197,3.622c-7.179,3.502-8.542,6.124-2.203,4.238
	c7.803-2.321,13.297,0.272,13.234,6.248c-0.044,4.252-2.862,7.726-3.664,4.519c-0.206-0.822-0.918-1.377-1.779-1.386
	c-1.481-0.016-2.414,0.869-6.416,6.086c-7.005,9.13-18.568,3.904-15.507-7.009c1.114-3.969,10.417-13.227,15.685-15.607
	c3.587-1.62,4.782-3.312,2.357-3.337c-3.495-0.037-10.229,2.764-14.17,5.895c-8.745,6.947-14.478,7.821-21.654,3.301
	c-3.891-2.451-5.028-2.592-6.04-0.748c-1.657,3.02-5.474,0.388-5.431-3.744c0.012-1.109,0.543-2.58,1.181-3.27
	c1.938-2.097,0.403-2.552-6.768-2.008c-9.283,0.704-14.391,3.822-17.651,10.773c-2.33,4.969-5.515,8.569-9.864,11.149
	c-5.936,3.521-6.675,4.229-7.208,6.913c-0.898,4.524-3.672,0.714-3.629-4.983c0.052-6.82,6.823-16.153,13.853-19.093
	c2.083-0.871,4.405-1.846,5.16-2.168s1.913-0.751,2.573-0.954c6.187-1.906-14.075-2.1-21.272-0.204
	c-6.75,1.779-11.359,5.481-14.362,11.539c-2.026,4.088-5.015,6.9-9.894,9.309c-2.49,1.229-3.685,2.328-4.442,4.089
	c-1.841,4.279-5.176,0.993-5.086-5.009c0.129-8.606,12.726-19.82,22.241-19.8c0.658,0.001,1.201-0.325,1.205-0.726
	c0.011-1.038-25.211-0.374-30.265,0.798c-5.408,1.254-7.217,2.589-9.299,6.87c-2.443,5.023-4.772,7.092-10.531,9.356
	c-3.684,1.448-5.182,2.431-5.99,3.935l-1.077,2.007l-1.263-1.594c-5.281-6.664,2.124-16.031,15.286-19.34
	c1.671-0.42,3.183-1.18,3.358-1.689c0.359-1.04-10.922-0.692-14.672,0.453c-17.672,5.395-29.295,5.618-45.38,0.869
	c-8.519-2.515-8.68-2.516-11.291-0.037c-4.177,3.965-9.917,1.465-9.857-4.293c0.054-5.17,5.254-7.169,9.332-3.588
	c2.642,2.321,3.198,2.266,22.52-2.213c5.927-1.374,12.043-1.551,17.233-0.5c1.801,0.365,5.27,1.061,7.709,1.548
	c2.439,0.487,6.708,1.48,9.487,2.206c8.366,2.185,16.96,1.544,9.285-0.692c-7.813-2.276-13.568-12.954-9.485-17.601
	c1.765-2.009,2.917-1.774,3.86,0.786c0.318,0.865,2.206,2.526,4.193,3.692c4.139,2.427,6.426,4.753,8.825,8.978
	c3.475,6.122,4.922,6.599,21.187,6.972c13.085,0.3,19.12-0.508,12.049-1.612c-11.376-1.777-21.318-14.774-16.817-21.984
	c1.752-2.807,3.505-2.783,4.792,0.065c0.75,1.659,2.178,2.815,5.671,4.588c4.301,2.183,4.95,2.817,8.242,8.038
	c5.606,8.893,10.009,10.693,26.519,10.845c9.804,0.09,11.542-0.538,6.257-2.262c-6.343-2.068-15.179-9.123-16.753-13.376
	c-2.424-6.549-1.627-13.919,1.592-14.725c1.673-0.419,2.043,0.026,2.018,2.43c-0.032,3.011,0.963,4.331,5.082,6.745
	c3.79,2.221,5.48,4.183,10.662,12.372c4.018,6.349,6.629,7.621,15.842,7.718l7.037,0.074l-0.353-3.274
	c-0.484-4.49,0.922-5.747,3.596-3.216c2.42,2.29,3.188,2.23,6.294-0.496c7.18-6.302,11.355-5.991,22.56,1.675
	c4.221,2.888,7.382,4.509,9.977,5.119c6.063,1.424,6.038-0.08-0.06-3.606c-13.237-7.654-19.044-21.029-11.404-26.263
	c5.259-3.602,12.701,0.597,17.662,9.964c1.609,3.039,4.613,3.13,4.644,0.141c0.034-3.281,3.549-1.443,4.453,2.33
	c1.791,7.467-6.213,11.533-14.708,7.47c-8.515-4.073-4.699,2.072,4.125,6.643c9.713,5.032,14.841,5.433,18.994,1.487
	c2.397-2.278,4.943-3.116,7.162-2.888c0.068-0.365,0.172-0.747,0.314-1.145c0.398-0.141,0.78-0.246,1.145-0.314
	c-0.228-2.219,0.61-4.765,2.888-7.162c3.946-4.152,3.545-9.28-1.487-18.994c-4.571-8.824-10.715-12.639-6.643-4.125
	c4.063,8.495-0.003,16.499-7.47,14.708c-3.773-0.905-5.611-4.419-2.33-4.454c2.989-0.031,2.898-3.035-0.141-4.644
	c-9.367-4.961-13.566-12.403-9.964-17.662c5.233-7.641,18.608-1.833,26.263,11.404c3.526,6.098,5.03,6.122,3.606,0.06
	c-0.609-2.594-2.231-5.755-5.119-9.977c-7.666-11.205-7.976-15.379-1.675-22.56c2.725-3.105,2.786-3.874,0.496-6.294
	c-2.531-2.674-1.274-4.08,3.216-3.596l3.274,0.353l-0.074-7.037c-0.097-9.213-1.369-11.824-7.718-15.842
	c-8.189-5.182-10.151-6.872-12.372-10.662c-2.414-4.119-3.734-5.113-6.745-5.082c-2.403,0.025-2.848-0.346-2.43-2.018
	c0.806-3.219,8.176-4.016,14.725-1.592c4.254,1.574,11.308,10.41,13.376,16.753c1.724,5.286,2.352,3.547,2.262-6.257
	c-0.152-16.51-1.952-20.913-10.845-26.519c-5.222-3.292-5.855-3.941-8.038-8.242c-1.773-3.493-2.929-4.922-4.587-5.671
	c-2.848-1.287-2.872-3.041-0.066-4.793c7.211-4.501,20.207,5.441,21.984,16.817c1.105,7.071,1.912,1.036,1.612-12.049
	c-0.373-16.264-0.85-17.712-6.972-21.187c-4.226-2.399-6.551-4.686-8.978-8.824c-1.165-1.987-2.827-3.875-3.692-4.193
	c-2.56-0.943-2.795-2.095-0.786-3.86c4.647-4.082,15.324,1.672,17.601,9.485c2.236,7.676,2.877-0.919,0.692-9.285
	c-0.726-2.779-1.719-7.048-2.206-9.487c-0.487-2.439-1.183-5.909-1.548-7.709c-1.051-5.19-0.874-11.306,0.5-17.233
	c1.596-6.884,2.63-11.385,3.195-14.448c3.063-0.565,7.565-1.599,14.448-3.195c5.927-1.374,12.043-1.551,17.233-0.5
	c1.801,0.365,5.27,1.061,7.709,1.548c2.439,0.487,6.708,1.48,9.487,2.206c8.366,2.185,16.96,1.544,9.285-0.692
	c-7.813-2.276-13.568-12.954-9.485-17.601c1.765-2.009,2.917-1.774,3.86,0.786c0.318,0.865,2.206,2.526,4.193,3.692
	c4.139,2.427,6.426,4.753,8.824,8.978c3.475,6.122,4.922,6.599,21.187,6.972c13.085,0.3,19.12-0.508,12.049-1.612
	c-11.376-1.777-21.318-14.774-16.817-21.984c1.752-2.807,3.505-2.783,4.793,0.066c0.75,1.659,2.178,2.815,5.671,4.587
	c4.301,2.183,4.95,2.817,8.242,8.038c5.606,8.893,10.009,10.693,26.519,10.845c9.804,0.09,11.542-0.538,6.257-2.262
	c-6.343-2.068-15.179-9.123-16.753-13.376c-2.424-6.549-1.627-13.919,1.592-14.725c1.673-0.419,2.044,0.026,2.018,2.43
	c-0.031,3.011,0.963,4.331,5.082,6.745c3.79,2.221,5.48,4.183,10.662,12.372c4.018,6.349,6.629,7.621,15.842,7.718l7.037,0.074
	l-0.353-3.274c-0.484-4.49,0.922-5.747,3.596-3.216c2.42,2.29,3.188,2.23,6.294-0.496c7.181-6.302,11.355-5.991,22.56,1.675
	c4.221,2.888,7.382,4.51,9.977,5.119c6.063,1.424,6.038-0.08-0.06-3.606c-13.237-7.654-19.044-21.029-11.404-26.263
	c5.259-3.602,12.701,0.597,17.662,9.964c1.609,3.039,4.613,3.13,4.644,0.141c0.034-3.281,3.549-1.443,4.454,2.33
	c1.791,7.467-6.213,11.533-14.708,7.47c-8.515-4.073-4.699,2.072,4.125,6.643c9.713,5.031,14.841,5.433,18.994,1.487
	c2.397-2.278,4.943-3.116,7.162-2.888c0.068-0.365,0.172-0.747,0.314-1.145c0.398-0.141,0.78-0.246,1.145-0.314
	c-0.228-2.219,0.61-4.765,2.888-7.162c3.946-4.152,3.545-9.28-1.487-18.994c-4.571-8.824-10.715-12.639-6.643-4.125
	c4.063,8.495-0.003,16.499-7.47,14.708c-3.773-0.905-5.611-4.419-2.33-4.453c2.989-0.031,2.898-3.035-0.141-4.644
	c-9.367-4.961-13.566-12.403-9.964-17.662c5.233-7.641,18.608-1.833,26.263,11.404c3.526,6.098,5.03,6.122,3.606,0.06
	c-0.609-2.594-2.231-5.755-5.119-9.977c-7.666-11.205-7.977-15.379-1.675-22.56c2.725-3.105,2.786-3.874,0.496-6.294
	c-2.531-2.675-1.274-4.08,3.216-3.596l3.274,0.353l-0.074-7.037c-0.096-9.213-1.369-11.824-7.718-15.842
	c-8.189-5.182-10.151-6.872-12.372-10.662c-2.414-4.119-3.734-5.113-6.745-5.082c-2.404,0.025-2.849-0.346-2.43-2.018
	c0.806-3.219,8.176-4.016,14.725-1.592c4.254,1.574,11.308,10.41,13.376,16.753c1.724,5.286,2.352,3.547,2.262-6.257
	c-0.152-16.51-1.952-20.913-10.845-26.519c-5.222-3.292-5.855-3.941-8.038-8.242c-1.773-3.493-2.929-4.922-4.588-5.671
	c-2.848-1.287-2.872-3.041-0.065-4.792c7.211-4.501,20.207,5.441,21.984,16.817c1.105,7.071,1.912,1.036,1.612-12.049
	c-0.373-16.264-0.85-17.712-6.972-21.187c-4.226-2.399-6.551-4.686-8.978-8.825c-1.165-1.987-2.827-3.874-3.692-4.193
	c-2.56-0.943-2.795-2.095-0.786-3.86c4.647-4.082,15.324,1.672,17.601,9.485c2.236,7.676,2.877-0.919,0.692-9.285
	c-0.726-2.779-1.719-7.048-2.206-9.487c-0.487-2.439-1.183-5.909-1.548-7.709c-1.051-5.19-0.874-11.306,0.5-17.233
	c4.479-19.321,4.534-19.878,2.213-22.52c-3.582-4.078-1.582-9.278,3.588-9.332c5.757-0.06,8.257,5.68,4.293,9.857
	c-2.479,2.611-2.478,2.772,0.037,11.291c4.749,16.085,4.527,27.708-0.869,45.38c-1.145,3.751-1.493,15.031-0.453,14.672
	c0.509-0.176,1.269-1.687,1.689-3.358c3.308-13.163,12.676-20.568,19.34-15.286l1.594,1.263l-2.007,1.077
	c-1.504,0.808-2.487,2.306-3.935,5.99c-2.263,5.759-4.333,8.088-9.356,10.531c-4.281,2.082-5.617,3.891-6.87,9.299
	c-1.172,5.054-1.836,30.276-0.798,30.265c0.401-0.004,0.728-0.547,0.726-1.205c-0.021-9.515,11.193-22.111,19.8-22.241
	c6.002-0.09,9.287,3.245,5.009,5.086c-1.761,0.757-2.86,1.952-4.089,4.442c-2.409,4.88-5.221,7.868-9.309,9.894
	c-6.058,3.003-9.76,7.611-11.539,14.362c-1.896,7.197-1.702,27.459,0.204,21.272c0.203-0.66,0.633-1.818,0.954-2.573
	s1.297-3.078,2.168-5.16c2.94-7.03,12.274-13.802,19.093-13.853c5.697-0.043,9.507,2.731,4.983,3.629
	c-2.684,0.533-3.393,1.272-6.913,7.208c-2.58,4.349-6.18,7.534-11.149,9.864c-6.951,3.259-10.068,8.368-10.773,17.651
	c-0.544,7.171-0.089,8.706,2.008,6.768c0.69-0.638,2.161-1.169,3.27-1.181c4.132-0.043,6.764,3.774,3.744,5.431
	c-1.844,1.012-1.703,2.149,0.748,6.04c4.52,7.176,3.646,12.909-3.301,21.654c-3.131,3.941-5.932,10.674-5.895,14.17
	c0.025,2.425,1.717,1.23,3.337-2.357c2.38-5.268,11.637-14.572,15.607-15.685c10.913-3.061,16.139,8.502,7.009,15.507
	c-5.217,4.002-6.101,4.935-6.086,6.416c0.009,0.861,0.564,1.573,1.386,1.779c3.207,0.803-0.267,3.62-4.519,3.664
	c-5.976,0.063-8.569-5.431-6.248-13.234c1.885-6.338-0.737-4.976-4.238,2.203c-4.504,9.234-6.374,20.174-3.622,21.197
	c2.522,0.938,3.705,4.974,3.334,8.305c2.228-0.241,4.788,0.594,7.198,2.884c4.152,3.946,9.282,3.543,18.995-1.488
	c8.824-4.571,12.638-10.715,4.123-6.643c-8.495,4.063-16.499-0.001-14.708-7.469c0.905-3.773,4.419-5.611,4.454-2.33
	c0.031,2.989,3.036,2.896,4.646-0.142c4.961-9.367,12.403-13.566,17.662-9.964c7.641,5.233,1.833,18.608-11.404,26.263
	c-6.098,3.526-6.124,5.031-0.061,3.608c2.594-0.609,5.755-2.232,9.977-5.12c11.205-7.666,15.379-7.975,22.56-1.673
	c3.105,2.725,3.874,2.786,6.294,0.496c2.674-2.531,4.08-1.274,3.596,3.216l-0.353,3.273l0.212,5.335c0,0,1.169,2.161,1.181,3.27
	c0.043,4.132-3.774,6.764-5.431,3.744c-1.012-1.844-2.149-1.703-6.04,0.748c-7.177,4.52-12.909,3.646-21.654-3.301
	c-3.941-3.13-10.674-5.933-14.17-5.896c-2.425,0.025-1.23,1.718,2.357,3.338c5.268,2.38,14.573,11.636,15.687,15.605
	c3.061,10.913-8.504,16.139-15.508,7.009c-4.003-5.217-4.935-6.101-6.416-6.086c-0.861,0.009-1.573,0.565-1.779,1.387
	c-0.803,3.207-3.62-0.268-3.665-4.521c-0.063-5.976,5.432-8.569,13.235-6.248c6.338,1.885,4.974-0.737-2.205-4.238
	c-9.234-4.504-20.174-6.372-21.197-3.62c-0.868,2.335-4.394,3.522-7.556,3.391c-0.028,0.179-0.071,0.364-0.127,0.554
	c-0.19,0.056-0.375,0.099-0.554,0.127c0.131,3.162-1.056,6.687-3.391,7.555c-2.752,1.023-0.884,11.962,3.62,21.197
	c3.502,7.179,6.124,8.543,4.239,2.205c-2.321-7.803,0.272-13.298,6.248-13.235c4.253,0.045,7.728,2.862,4.521,3.665
	c-0.822,0.206-1.378,0.918-1.387,1.779c-0.015,1.481,0.869,2.414,6.086,6.416c9.13,7.005,3.904,18.57-7.009,15.508
	c-3.969-1.114-13.226-10.418-15.605-15.686c-1.62-3.587-3.313-4.782-3.338-2.357c-0.036,3.495,2.766,10.229,5.896,14.17
	c6.947,8.745,7.821,14.478,3.301,21.654c-2.451,3.891-2.592,5.028-0.748,6.04c3.02,1.657,0.388,5.474-3.744,5.431
	c-1.109-0.012-3.27-1.181-3.27-1.181l-5.335-0.212l-3.273,0.353c-4.49,0.484-5.747-0.922-3.216-3.596
	c2.29-2.42,2.229-3.188-0.496-6.294c-6.302-7.181-5.992-11.355,1.673-22.56c2.888-4.221,4.511-7.382,5.12-9.977
	c1.424-6.063-0.081-6.037-3.608,0.061c-7.654,13.237-21.029,19.045-26.263,11.404c-3.602-5.259,0.597-12.701,9.964-17.662
	c3.039-1.609,3.131-4.615,0.142-4.646c-3.281-0.034-1.443-3.549,2.33-4.454c7.467-1.791,11.532,6.213,7.469,14.708
	c-4.073,8.515,2.072,4.701,6.643-4.123c5.031-9.713,5.434-14.843,1.488-18.995c-2.29-2.41-3.125-4.97-2.884-7.198
	c-3.331,0.371-7.367-0.812-8.305-3.334c-1.023-2.752-11.962-0.882-21.197,3.622c-7.179,3.502-8.542,6.124-2.203,4.239
	c7.803-2.321,13.296,0.272,13.234,6.248c-0.044,4.253-2.862,7.726-3.665,4.519c-0.206-0.822-0.918-1.377-1.779-1.386
	c-1.481-0.016-2.414,0.869-6.416,6.086c-7.005,9.13-18.568,3.904-15.507-7.009c1.114-3.969,10.417-13.227,15.685-15.607
	c3.588-1.62,4.782-3.312,2.357-3.337c-3.495-0.037-10.229,2.764-14.17,5.895c-8.745,6.947-14.478,7.821-21.654,3.301
	c-3.891-2.45-5.028-2.592-6.04-0.748c-1.657,3.02-5.474,0.388-5.431-3.744c0.012-1.109,0.543-2.58,1.181-3.27
	c1.938-2.097,0.404-2.552-6.768-2.008c-9.283,0.704-14.391,3.822-17.65,10.773c-2.33,4.969-5.515,8.569-9.864,11.149
	c-5.935,3.521-6.675,4.229-7.208,6.913c-0.898,4.524-3.672,0.714-3.629-4.983c0.052-6.819,6.823-16.153,13.854-19.093
	c2.082-0.871,4.405-1.846,5.16-2.168s1.913-0.751,2.574-0.954c6.186-1.906-14.075-2.1-21.272-0.204
	c-6.751,1.779-11.359,5.481-14.362,11.539c-2.026,4.088-5.015,6.9-9.894,9.309c-2.49,1.229-3.685,2.328-4.442,4.089
	c-1.84,4.279-5.176,0.993-5.086-5.009c0.129-8.606,12.726-19.82,22.241-19.8c0.658,0.001,1.201-0.325,1.205-0.726
	c0.011-1.039-25.211-0.374-30.265,0.798c-5.408,1.254-7.217,2.589-9.299,6.87c-2.443,5.023-4.772,7.093-10.531,9.356
	c-3.684,1.448-5.182,2.431-5.99,3.935l-1.077,2.007l-1.263-1.594c-5.281-6.664,2.124-16.032,15.286-19.34
	c1.671-0.42,3.183-1.18,3.358-1.689c0.359-1.041-10.922-0.692-14.672,0.453C1353.674,1331.534,1342.623,1332.173,1328.708,1328.708z
	 M357.398,1328.708c-13.915,3.465-24.967,2.826-40.992-2.066c-3.751-1.145-15.031-1.493-14.672-0.453
	c0.176,0.509,1.687,1.269,3.358,1.689c13.163,3.308,20.568,12.676,15.286,19.34l-1.263,1.594l-1.077-2.007
	c-0.808-1.504-2.306-2.487-5.99-3.935c-5.759-2.263-8.088-4.333-10.531-9.356c-2.082-4.281-3.891-5.617-9.299-6.87
	c-5.054-1.172-30.276-1.836-30.265-0.798c0.004,0.401,0.547,0.728,1.205,0.726c9.515-0.021,22.111,11.193,22.241,19.8
	c0.09,6.002-3.245,9.288-5.086,5.009c-0.758-1.761-1.952-2.86-4.442-4.089c-4.88-2.409-7.868-5.221-9.894-9.309
	c-3.003-6.058-7.611-9.76-14.362-11.539c-7.197-1.896-27.459-1.702-21.272,0.204c0.66,0.203,1.818,0.633,2.574,0.954
	c0.755,0.321,3.077,1.297,5.16,2.168c7.03,2.94,13.802,12.274,13.853,19.093c0.043,5.697-2.731,9.507-3.629,4.983
	c-0.533-2.684-1.273-3.392-7.208-6.913c-4.349-2.58-7.534-6.18-9.864-11.149c-3.259-6.951-8.368-10.068-17.65-10.773
	c-7.171-0.544-8.706-0.089-6.768,2.008c0.638,0.69,1.169,2.161,1.181,3.27c0.043,4.132-3.774,6.764-5.431,3.744
	c-1.012-1.844-2.149-1.703-6.04,0.748c-7.176,4.52-12.909,3.646-21.654-3.301c-3.941-3.131-10.674-5.932-14.17-5.895
	c-2.425,0.025-1.23,1.716,2.357,3.337c5.268,2.38,14.571,11.637,15.685,15.607c3.061,10.913-8.502,16.139-15.507,7.009
	c-4.003-5.217-4.935-6.101-6.416-6.086c-0.861,0.009-1.573,0.564-1.779,1.386c-0.803,3.207-3.62-0.267-3.665-4.519
	c-0.063-5.976,5.431-8.569,13.234-6.248c6.338,1.885,4.976-0.737-2.203-4.239c-9.234-4.504-20.174-6.374-21.197-3.622
	c-0.938,2.522-4.974,3.705-8.305,3.334c0.241,2.228-0.594,4.788-2.884,7.198c-3.946,4.152-3.543,9.282,1.488,18.995
	c4.571,8.824,10.715,12.638,6.643,4.123c-4.063-8.495,0.001-16.499,7.469-14.708c3.773,0.905,5.611,4.419,2.33,4.454
	c-2.989,0.031-2.896,3.036,0.142,4.646c9.367,4.961,13.566,12.403,9.964,17.662c-5.233,7.641-18.608,1.833-26.263-11.404
	c-3.526-6.098-5.031-6.124-3.608-0.061c0.609,2.594,2.232,5.755,5.12,9.977c7.666,11.205,7.975,15.379,1.673,22.56
	c-2.725,3.105-2.786,3.874-0.496,6.294c2.531,2.675,1.274,4.08-3.216,3.596l-3.273-0.353l-5.335,0.212c0,0-2.161,1.169-3.27,1.181
	c-4.132,0.043-6.764-3.774-3.744-5.431c1.844-1.012,1.703-2.149-0.748-6.04c-4.52-7.176-3.646-12.909,3.301-21.654
	c3.131-3.941,5.933-10.674,5.896-14.17c-0.025-2.425-1.718-1.23-3.338,2.357c-2.38,5.268-11.636,14.573-15.605,15.686
	c-10.913,3.061-16.139-8.504-7.009-15.508c5.217-4.003,6.101-4.935,6.086-6.416c-0.009-0.861-0.565-1.573-1.387-1.779
	c-3.207-0.803,0.268-3.62,4.52-3.665c5.976-0.063,8.569,5.432,6.248,13.235c-1.885,6.338,0.737,4.974,4.239-2.205
	c4.504-9.234,6.372-20.174,3.62-21.197c-2.335-0.868-3.522-4.394-3.391-7.555c-0.179-0.028-0.364-0.071-0.554-0.127
	c-0.056-0.19-0.099-0.375-0.127-0.554c-3.162,0.131-6.687-1.056-7.556-3.391c-1.023-2.752-11.962-0.884-21.197,3.62
	c-7.179,3.501-8.543,6.124-2.205,4.238c7.803-2.321,13.298,0.272,13.235,6.248c-0.045,4.252-2.862,7.728-3.665,4.521
	c-0.206-0.822-0.918-1.378-1.779-1.387c-1.481-0.015-2.414,0.869-6.416,6.086c-7.005,9.13-18.57,3.904-15.508-7.009
	c1.114-3.969,10.418-13.226,15.686-15.605c3.587-1.62,4.783-3.313,2.357-3.338c-3.495-0.036-10.229,2.766-14.17,5.896
	c-8.745,6.947-14.478,7.821-21.654,3.301c-3.891-2.451-5.028-2.592-6.04-0.748c-1.657,3.02-5.474,0.388-5.431-3.744
	c0.012-1.109,1.181-3.27,1.181-3.27l0.212-5.335l-0.353-3.273c-0.484-4.49,0.922-5.747,3.596-3.216
	c2.42,2.29,3.188,2.23,6.294-0.496c7.181-6.302,11.355-5.992,22.56,1.673c4.221,2.888,7.382,4.511,9.977,5.12
	c6.063,1.424,6.037-0.081-0.061-3.608c-13.237-7.654-19.044-21.029-11.404-26.263c5.259-3.602,12.701,0.597,17.662,9.964
	c1.609,3.039,4.615,3.131,4.646,0.142c0.034-3.281,3.549-1.443,4.454,2.33c1.791,7.467-6.213,11.532-14.708,7.469
	c-8.515-4.073-4.701,2.072,4.123,6.643c9.713,5.032,14.843,5.434,18.995,1.488c2.41-2.29,4.97-3.125,7.198-2.884
	c-0.371-3.331,0.812-7.367,3.334-8.305c2.752-1.023,0.882-11.962-3.622-21.197c-3.502-7.179-6.124-8.542-4.238-2.203
	c2.321,7.803-0.272,13.297-6.248,13.234c-4.253-0.044-7.726-2.862-4.519-3.664c0.822-0.206,1.377-0.918,1.386-1.779
	c0.016-1.481-0.869-2.414-6.086-6.416c-9.13-7.005-3.904-18.568,7.009-15.507c3.969,1.114,13.227,10.417,15.607,15.685
	c1.62,3.587,3.312,4.782,3.337,2.357c0.037-3.495-2.764-10.229-5.895-14.17c-6.947-8.745-7.821-14.478-3.301-21.654
	c2.451-3.891,2.592-5.028,0.748-6.04c-3.02-1.657-0.388-5.474,3.744-5.431c1.109,0.012,2.58,0.543,3.27,1.181
	c2.097,1.938,2.552,0.403,2.008-6.768c-0.704-9.283-3.822-14.391-10.773-17.651c-4.969-2.33-8.569-5.515-11.149-9.864
	c-3.521-5.936-4.229-6.675-6.913-7.208c-4.524-0.898-0.714-3.672,4.983-3.629c6.82,0.052,16.153,6.823,19.093,13.853
	c0.871,2.083,1.846,4.405,2.168,5.16c0.321,0.755,0.751,1.913,0.954,2.573c1.906,6.187,2.1-14.075,0.204-21.272
	c-1.779-6.75-5.481-11.359-11.539-14.362c-4.088-2.026-6.9-5.015-9.309-9.894c-1.229-2.49-2.328-3.685-4.089-4.442
	c-4.279-1.841-0.993-5.176,5.009-5.086c8.606,0.129,19.82,12.726,19.8,22.241c-0.001,0.658,0.325,1.201,0.726,1.205
	c1.039,0.011,0.374-25.211-0.798-30.265c-1.254-5.408-2.59-7.217-6.87-9.299c-5.023-2.443-7.092-4.772-9.356-10.531
	c-1.448-3.684-2.431-5.182-3.935-5.99l-2.007-1.077l1.594-1.263c6.664-5.281,16.032,2.124,19.34,15.286
	c0.42,1.671,1.18,3.183,1.689,3.358c1.04,0.359,0.692-10.922-0.453-14.672c-5.395-17.672-5.618-29.295-0.869-45.38
	c2.515-8.519,2.516-8.68,0.037-11.291c-3.965-4.177-1.465-9.917,4.293-9.857c5.17,0.054,7.169,5.254,3.588,9.332
	c-2.321,2.642-2.266,3.198,2.213,22.52c1.374,5.927,1.551,12.043,0.5,17.233c-0.365,1.801-1.061,5.27-1.548,7.709
	c-0.487,2.439-1.481,6.708-2.206,9.487c-2.185,8.366-1.544,16.96,0.692,9.285c2.276-7.813,12.954-13.568,17.601-9.485
	c2.009,1.765,1.774,2.917-0.786,3.86c-0.865,0.318-2.526,2.206-3.692,4.193c-2.427,4.139-4.753,6.426-8.978,8.825
	c-6.122,3.475-6.599,4.922-6.972,21.187c-0.3,13.085,0.508,19.12,1.612,12.049c1.777-11.376,14.774-21.318,21.984-16.817
	c2.807,1.752,2.783,3.505-0.066,4.792c-1.659,0.75-2.815,2.178-4.587,5.671c-2.183,4.301-2.817,4.95-8.038,8.242
	c-8.893,5.606-10.693,10.009-10.845,26.519c-0.09,9.804,0.538,11.542,2.262,6.257c2.068-6.343,9.123-15.179,13.376-16.753
	c6.549-2.424,13.919-1.627,14.725,1.592c0.419,1.673-0.026,2.043-2.43,2.018c-3.011-0.032-4.331,0.963-6.745,5.082
	c-2.221,3.79-4.183,5.48-12.372,10.662c-6.349,4.018-7.621,6.629-7.718,15.842l-0.074,7.037l3.274-0.353
	c4.49-0.484,5.747,0.922,3.216,3.596c-2.29,2.42-2.23,3.188,0.496,6.294c6.302,7.18,5.991,11.355-1.675,22.56
	c-2.888,4.221-4.509,7.382-5.119,9.977c-1.424,6.063,0.08,6.038,3.606-0.06c7.654-13.237,21.029-19.044,26.263-11.404
	c3.602,5.259-0.597,12.701-9.964,17.662c-3.039,1.609-3.13,4.613-0.141,4.644c3.281,0.034,1.443,3.549-2.33,4.453
	c-7.467,1.791-11.533-6.213-7.47-14.708c4.073-8.515-2.072-4.699-6.643,4.125c-5.032,9.713-5.433,14.841-1.487,18.994
	c2.278,2.397,3.116,4.943,2.888,7.162c0.365,0.068,0.747,0.172,1.145,0.314c0.141,0.398,0.246,0.78,0.314,1.145
	c2.219-0.228,4.765,0.61,7.162,2.888c4.152,3.946,9.28,3.545,18.993-1.487c8.824-4.571,12.639-10.715,4.125-6.643
	c-8.495,4.063-16.499-0.003-14.708-7.47c0.905-3.773,4.419-5.611,4.454-2.33c0.031,2.989,3.035,2.898,4.644-0.141
	c4.961-9.367,12.403-13.566,17.662-9.964c7.641,5.233,1.833,18.608-11.404,26.263c-6.098,3.526-6.122,5.03-0.06,3.606
	c2.594-0.609,5.755-2.231,9.977-5.119c11.205-7.666,15.379-7.976,22.56-1.675c3.105,2.725,3.874,2.786,6.294,0.496
	c2.674-2.531,4.08-1.274,3.596,3.216l-0.353,3.274l7.037-0.074c9.213-0.097,11.824-1.369,15.842-7.718
	c5.182-8.189,6.872-10.151,10.662-12.372c4.119-2.414,5.113-3.734,5.082-6.745c-0.025-2.403,0.346-2.848,2.018-2.43
	c3.219,0.806,4.016,8.176,1.592,14.725c-1.574,4.254-10.41,11.308-16.753,13.376c-5.286,1.724-3.547,2.352,6.257,2.262
	c16.51-0.152,20.913-1.952,26.519-10.845c3.292-5.222,3.941-5.855,8.242-8.038c3.493-1.773,4.922-2.929,5.671-4.587
	c1.287-2.848,3.041-2.872,4.793-0.066c4.501,7.211-5.441,20.207-16.817,21.984c-7.071,1.105-1.036,1.912,12.049,1.612
	c16.264-0.373,17.712-0.85,21.187-6.972c2.399-4.226,4.686-6.551,8.824-8.978c1.987-1.165,3.874-2.827,4.193-3.692
	c0.943-2.56,2.095-2.795,3.86-0.786c4.082,4.647-1.672,15.324-9.485,17.601c-7.676,2.236,0.919,2.877,9.285,0.692
	c2.779-0.726,7.048-1.719,9.487-2.206c2.439-0.487,5.909-1.183,7.709-1.548c5.19-1.051,11.306-0.874,17.233,0.5
	c6.883,1.596,11.385,2.63,14.448,3.195c0.565,3.063,1.6,7.565,3.195,14.448c1.374,5.927,1.551,12.043,0.5,17.233
	c-0.365,1.801-1.061,5.27-1.548,7.709c-0.487,2.439-1.48,6.708-2.206,9.487c-2.185,8.366-1.544,16.96,0.692,9.285
	c2.276-7.813,12.954-13.568,17.601-9.485c2.009,1.765,1.774,2.917-0.786,3.86c-0.865,0.318-2.526,2.206-3.692,4.193
	c-2.427,4.139-4.753,6.426-8.978,8.824c-6.122,3.475-6.599,4.922-6.972,21.187c-0.3,13.085,0.508,19.12,1.612,12.049
	c1.777-11.376,14.774-21.318,21.984-16.817c2.807,1.752,2.783,3.505-0.065,4.793c-1.659,0.75-2.815,2.178-4.587,5.671
	c-2.183,4.301-2.817,4.95-8.038,8.242c-8.893,5.606-10.693,10.009-10.845,26.519c-0.09,9.804,0.538,11.542,2.262,6.257
	c2.068-6.343,9.123-15.179,13.376-16.753c6.549-2.424,13.919-1.627,14.725,1.592c0.419,1.673-0.026,2.044-2.43,2.018
	c-3.011-0.031-4.331,0.963-6.745,5.082c-2.221,3.79-4.183,5.48-12.372,10.662c-6.349,4.018-7.621,6.629-7.718,15.842l-0.074,7.037
	l3.274-0.353c4.49-0.484,5.747,0.922,3.216,3.596c-2.29,2.42-2.23,3.188,0.496,6.294c6.302,7.181,5.991,11.355-1.675,22.56
	c-2.888,4.221-4.509,7.382-5.119,9.977c-1.424,6.063,0.08,6.038,3.606-0.06c7.654-13.237,21.029-19.044,26.263-11.404
	c3.602,5.259-0.596,12.701-9.964,17.662c-3.039,1.609-3.13,4.613-0.141,4.644c3.281,0.034,1.443,3.549-2.33,4.454
	c-7.467,1.791-11.533-6.213-7.47-14.708c4.073-8.515-2.072-4.699-6.643,4.125c-5.032,9.713-5.433,14.841-1.487,18.994
	c2.278,2.397,3.116,4.943,2.888,7.162c0.365,0.068,0.747,0.172,1.145,0.314c0.141,0.398,0.246,0.78,0.314,1.145
	c2.219-0.228,4.765,0.61,7.162,2.888c4.152,3.946,9.28,3.545,18.993-1.487c8.824-4.571,12.639-10.715,4.125-6.643
	c-8.495,4.063-16.499-0.003-14.708-7.47c0.905-3.773,4.419-5.611,4.454-2.33c0.031,2.989,3.035,2.898,4.644-0.141
	c4.961-9.367,12.403-13.566,17.662-9.964c7.641,5.233,1.833,18.608-11.404,26.263c-6.098,3.526-6.122,5.03-0.06,3.606
	c2.594-0.609,5.755-2.231,9.977-5.119c11.205-7.666,15.379-7.977,22.56-1.675c3.105,2.725,3.874,2.786,6.294,0.496
	c2.674-2.531,4.08-1.274,3.596,3.216l-0.353,3.274l7.037-0.074c9.213-0.096,11.824-1.369,15.842-7.718
	c5.182-8.189,6.872-10.151,10.662-12.372c4.119-2.414,5.113-3.734,5.082-6.745c-0.025-2.404,0.346-2.849,2.018-2.43
	c3.219,0.806,4.016,8.176,1.592,14.725c-1.574,4.254-10.41,11.308-16.753,13.376c-5.286,1.724-3.547,2.352,6.257,2.262
	c16.51-0.152,20.913-1.952,26.519-10.845c3.292-5.222,3.941-5.855,8.242-8.038c3.493-1.773,4.921-2.929,5.671-4.588
	c1.287-2.848,3.041-2.872,4.793-0.065c4.501,7.211-5.441,20.207-16.817,21.984c-7.071,1.105-1.036,1.912,12.049,1.612
	c16.264-0.373,17.712-0.85,21.187-6.972c2.399-4.226,4.686-6.551,8.825-8.978c1.987-1.165,3.874-2.827,4.193-3.692
	c0.943-2.56,2.095-2.795,3.86-0.786c4.082,4.647-1.672,15.324-9.485,17.601c-7.676,2.236,0.919,2.877,9.285,0.692
	c2.779-0.726,7.048-1.719,9.487-2.206s5.909-1.183,7.709-1.548c5.19-1.051,11.306-0.874,17.233,0.5
	c19.321,4.479,19.878,4.534,22.52,2.213c4.077-3.582,9.278-1.582,9.332,3.588c0.06,5.757-5.68,8.257-9.857,4.293
	c-2.611-2.479-2.772-2.478-11.291,0.037c-16.085,4.749-27.708,4.527-45.38-0.869c-3.751-1.145-15.031-1.493-14.672-0.453
	c0.176,0.509,1.687,1.269,3.358,1.689c13.163,3.308,20.568,12.676,15.286,19.34l-1.263,1.594l-1.077-2.007
	c-0.808-1.504-2.306-2.487-5.99-3.935c-5.759-2.263-8.088-4.333-10.531-9.356c-2.082-4.281-3.891-5.617-9.299-6.87
	c-5.054-1.172-30.276-1.836-30.265-0.798c0.004,0.401,0.547,0.728,1.205,0.726c9.515-0.021,22.111,11.193,22.241,19.8
	c0.09,6.002-3.245,9.287-5.086,5.009c-0.758-1.761-1.952-2.86-4.442-4.089c-4.88-2.409-7.868-5.221-9.894-9.309
	c-3.003-6.058-7.611-9.76-14.362-11.539c-7.197-1.896-27.459-1.702-21.272,0.204c0.66,0.203,1.818,0.633,2.574,0.954
	c0.755,0.321,3.077,1.297,5.16,2.168c7.03,2.94,13.802,12.274,13.853,19.093c0.043,5.697-2.731,9.507-3.629,4.983
	c-0.533-2.684-1.272-3.393-7.208-6.913c-4.349-2.58-7.534-6.18-9.864-11.149c-3.259-6.951-8.368-10.068-17.65-10.773
	c-7.171-0.544-8.706-0.089-6.768,2.008c0.638,0.69,1.169,2.161,1.181,3.27c0.043,4.132-3.774,6.764-5.431,3.744
	c-1.012-1.844-2.149-1.703-6.04,0.748c-7.176,4.52-12.909,3.646-21.654-3.301c-3.941-3.131-10.674-5.932-14.17-5.895
	c-2.425,0.025-1.23,1.717,2.357,3.337c5.268,2.38,14.571,11.637,15.685,15.607c3.061,10.913-8.502,16.139-15.507,7.009
	c-4.003-5.217-4.935-6.101-6.416-6.086c-0.861,0.009-1.573,0.564-1.779,1.386c-0.803,3.207-3.62-0.267-3.665-4.519
	c-0.063-5.976,5.431-8.569,13.234-6.248c6.338,1.885,4.976-0.737-2.203-4.238c-9.234-4.504-20.174-6.374-21.197-3.622
	c-0.938,2.522-4.974,3.705-8.305,3.334c0.241,2.228-0.594,4.788-2.884,7.198c-3.946,4.152-3.543,9.282,1.488,18.995
	c4.571,8.824,10.715,12.638,6.643,4.123c-4.063-8.495,0.001-16.499,7.469-14.708c3.773,0.905,5.611,4.419,2.33,4.454
	c-2.989,0.031-2.896,3.036,0.142,4.646c9.367,4.961,13.566,12.403,9.964,17.662c-5.233,7.641-18.608,1.833-26.263-11.404
	c-3.526-6.098-5.031-6.124-3.608-0.061c0.609,2.594,2.232,5.755,5.12,9.977c7.666,11.205,7.975,15.379,1.673,22.56
	c-2.725,3.105-2.786,3.874-0.496,6.294c2.531,2.674,1.274,4.08-3.216,3.596l-3.273-0.353l-5.335,0.212c0,0-2.161,1.169-3.27,1.181
	c-4.132,0.043-6.764-3.774-3.744-5.431c1.844-1.012,1.703-2.149-0.748-6.04c-4.52-7.177-3.646-12.909,3.301-21.654
	c3.131-3.941,5.933-10.674,5.896-14.17c-0.025-2.425-1.718-1.23-3.338,2.357c-2.38,5.268-11.636,14.573-15.605,15.687
	c-10.913,3.061-16.139-8.504-7.009-15.508c5.217-4.003,6.101-4.935,6.086-6.416c-0.009-0.861-0.565-1.573-1.387-1.779
	c-3.207-0.803,0.268-3.62,4.52-3.665c5.976-0.063,8.569,5.432,6.248,13.235c-1.885,6.338,0.737,4.974,4.238-2.205
	c4.504-9.234,6.372-20.174,3.62-21.197c-2.335-0.868-3.522-4.394-3.391-7.556c-0.179-0.028-0.364-0.071-0.554-0.127
	c-0.056-0.19-0.099-0.375-0.127-0.554c-3.162,0.131-6.687-1.056-7.556-3.391c-1.023-2.752-11.962-0.884-21.197,3.62
	c-7.179,3.502-8.543,6.124-2.205,4.239c7.803-2.321,13.298,0.272,13.235,6.248c-0.045,4.253-2.862,7.728-3.665,4.521
	c-0.206-0.822-0.918-1.378-1.779-1.387c-1.481-0.015-2.414,0.869-6.416,6.086c-7.005,9.13-18.57,3.904-15.508-7.009
	c1.114-3.969,10.418-13.226,15.686-15.605c3.587-1.62,4.783-3.313,2.357-3.338c-3.495-0.036-10.229,2.766-14.17,5.896
	c-8.745,6.947-14.477,7.821-21.654,3.301c-3.891-2.451-5.028-2.592-6.04-0.748c-1.657,3.02-5.474,0.388-5.431-3.744
	c0.012-1.109,1.181-3.27,1.181-3.27l0.212-5.335l-0.353-3.273c-0.484-4.49,0.922-5.747,3.596-3.216
	c2.42,2.29,3.188,2.229,6.294-0.496c7.181-6.302,11.355-5.992,22.56,1.673c4.221,2.888,7.382,4.511,9.977,5.12
	c6.063,1.424,6.037-0.081-0.061-3.608c-13.237-7.654-19.044-21.029-11.404-26.263c5.259-3.602,12.701,0.597,17.662,9.964
	c1.609,3.039,4.615,3.131,4.646,0.142c0.034-3.281,3.548-1.443,4.454,2.33c1.791,7.467-6.213,11.532-14.708,7.469
	c-8.515-4.073-4.701,2.072,4.123,6.643c9.713,5.031,14.843,5.434,18.995,1.488c2.41-2.29,4.97-3.125,7.198-2.884
	c-0.371-3.331,0.812-7.367,3.334-8.305c2.752-1.023,0.882-11.962-3.622-21.197c-3.502-7.179-6.124-8.542-4.238-2.203
	c2.321,7.803-0.272,13.296-6.248,13.234c-4.253-0.044-7.726-2.862-4.519-3.665c0.822-0.206,1.377-0.918,1.386-1.779
	c0.016-1.481-0.869-2.414-6.086-6.416c-9.13-7.005-3.904-18.568,7.009-15.507c3.969,1.114,13.227,10.417,15.607,15.685
	c1.62,3.588,3.312,4.782,3.337,2.357c0.037-3.495-2.764-10.229-5.895-14.17c-6.947-8.745-7.821-14.478-3.301-21.654
	c2.451-3.891,2.592-5.028,0.748-6.04c-3.02-1.657-0.388-5.474,3.744-5.431c1.109,0.012,2.58,0.543,3.27,1.181
	c2.097,1.938,2.552,0.404,2.008-6.768c-0.704-9.283-3.822-14.391-10.773-17.65c-4.969-2.33-8.569-5.515-11.149-9.864
	c-3.521-5.935-4.229-6.675-6.913-7.208c-4.524-0.898-0.714-3.672,4.983-3.629c6.82,0.052,16.153,6.823,19.093,13.854
	c0.871,2.082,1.846,4.405,2.168,5.16s0.751,1.913,0.954,2.574c1.906,6.186,2.1-14.075,0.204-21.272
	c-1.779-6.751-5.481-11.359-11.539-14.362c-4.088-2.026-6.9-5.015-9.309-9.894c-1.229-2.49-2.328-3.685-4.089-4.442
	c-4.279-1.84-0.993-5.176,5.009-5.086c8.606,0.129,19.82,12.726,19.8,22.241c-0.001,0.658,0.325,1.201,0.726,1.205
	c1.039,0.011,0.374-25.211-0.798-30.265c-1.254-5.408-2.59-7.217-6.87-9.299c-5.023-2.443-7.092-4.772-9.356-10.531
	c-1.448-3.684-2.431-5.182-3.935-5.99l-2.007-1.077l1.594-1.263c6.664-5.281,16.032,2.124,19.34,15.286
	c0.42,1.671,1.18,3.183,1.689,3.358c1.04,0.359,0.692-10.922-0.453-14.672C354.572,1353.674,353.933,1342.623,357.398,1328.708z
	 M357.398,357.398c-3.465-13.915-2.826-24.967,2.066-40.992c1.145-3.751,1.493-15.031,0.453-14.672
	c-0.509,0.176-1.269,1.687-1.689,3.358c-3.308,13.163-12.676,20.568-19.34,15.286l-1.594-1.263l2.007-1.077
	c1.504-0.808,2.487-2.306,3.935-5.99c2.263-5.759,4.333-8.088,9.356-10.531c4.281-2.082,5.617-3.891,6.87-9.299
	c1.172-5.054,1.836-30.276,0.798-30.265c-0.401,0.004-0.728,0.547-0.726,1.205c0.021,9.515-11.193,22.111-19.8,22.241
	c-6.002,0.09-9.288-3.245-5.009-5.086c1.761-0.758,2.86-1.952,4.089-4.442c2.409-4.88,5.221-7.868,9.309-9.894
	c6.058-3.003,9.76-7.611,11.539-14.362c1.896-7.197,1.702-27.459-0.204-21.272c-0.203,0.66-0.633,1.818-0.954,2.574
	c-0.321,0.755-1.297,3.077-2.168,5.16c-2.94,7.03-12.274,13.802-19.093,13.853c-5.697,0.043-9.507-2.731-4.983-3.629
	c2.684-0.533,3.393-1.273,6.913-7.208c2.58-4.349,6.18-7.534,11.149-9.864c6.951-3.259,10.068-8.368,10.773-17.65
	c0.544-7.171,0.089-8.706-2.008-6.768c-0.69,0.638-2.161,1.169-3.27,1.181c-4.132,0.043-6.764-3.774-3.744-5.431
	c1.844-1.012,1.703-2.149-0.748-6.04c-4.52-7.176-3.646-12.909,3.301-21.654c3.131-3.941,5.931-10.674,5.895-14.17
	c-0.025-2.425-1.717-1.23-3.337,2.357c-2.38,5.268-11.637,14.571-15.607,15.685c-10.913,3.061-16.139-8.502-7.009-15.507
	c5.217-4.003,6.101-4.935,6.086-6.416c-0.009-0.861-0.564-1.573-1.386-1.779c-3.207-0.803,0.267-3.62,4.519-3.665
	c5.976-0.063,8.569,5.431,6.248,13.234c-1.885,6.338,0.737,4.976,4.238-2.203c4.504-9.234,6.374-20.174,3.622-21.197
	c-2.522-0.938-3.705-4.974-3.334-8.305c-2.228,0.241-4.788-0.594-7.198-2.884c-4.152-3.946-9.282-3.543-18.995,1.488
	c-8.824,4.571-12.638,10.715-4.123,6.643c8.495-4.063,16.499,0.001,14.708,7.469c-0.905,3.773-4.419,5.611-4.454,2.33
	c-0.031-2.989-3.036-2.896-4.646,0.142c-4.961,9.367-12.403,13.566-17.662,9.964c-7.641-5.233-1.833-18.608,11.404-26.263
	c6.098-3.526,6.124-5.031,0.061-3.608c-2.594,0.609-5.755,2.232-9.977,5.12c-11.205,7.666-15.379,7.975-22.56,1.673
	c-3.105-2.725-3.874-2.786-6.294-0.496c-2.674,2.531-4.08,1.274-3.596-3.216l0.353-3.273l-0.212-5.335c0,0-1.169-2.161-1.181-3.27
	c-0.043-4.132,3.774-6.764,5.431-3.744c1.012,1.844,2.149,1.703,6.04-0.748c7.176-4.52,12.909-3.646,21.654,3.301
	c3.941,3.131,10.674,5.933,14.17,5.896c2.425-0.025,1.23-1.718-2.357-3.338c-5.268-2.38-14.573-11.636-15.686-15.605
	c-3.061-10.913,8.504-16.139,15.508-7.009c4.003,5.217,4.935,6.101,6.416,6.086c0.861-0.009,1.573-0.565,1.779-1.387
	c0.803-3.207,3.62,0.268,3.665,4.52c0.063,5.976-5.432,8.569-13.235,6.248c-6.338-1.885-4.974,0.737,2.205,4.239
	c9.234,4.504,20.174,6.372,21.197,3.62c0.868-2.335,4.394-3.522,7.556-3.391c0.028-0.179,0.071-0.364,0.127-0.554
	c0.19-0.056,0.375-0.099,0.554-0.127c-0.131-3.162,1.056-6.687,3.391-7.556c2.752-1.023,0.884-11.962-3.62-21.197
	c-3.502-7.179-6.124-8.543-4.238-2.205c2.321,7.803-0.272,13.298-6.248,13.235c-4.253-0.045-7.728-2.862-4.52-3.665
	c0.822-0.206,1.378-0.918,1.387-1.779c0.015-1.481-0.869-2.414-6.086-6.416c-9.13-7.005-3.904-18.57,7.009-15.508
	c3.969,1.114,13.226,10.418,15.605,15.686c1.62,3.587,3.313,4.783,3.338,2.357c0.036-3.495-2.766-10.229-5.896-14.17
	c-6.947-8.745-7.821-14.478-3.301-21.654c2.451-3.891,2.592-5.028,0.748-6.04c-3.02-1.657-0.388-5.474,3.744-5.431
	c1.109,0.012,3.27,1.181,3.27,1.181l5.335,0.212l3.273-0.353c4.49-0.484,5.747,0.922,3.216,3.596c-2.29,2.42-2.23,3.188,0.496,6.294
	c6.302,7.181,5.992,11.355-1.673,22.56c-2.888,4.221-4.511,7.382-5.12,9.977c-1.424,6.063,0.081,6.037,3.608-0.061
	c7.654-13.237,21.029-19.044,26.263-11.404c3.602,5.259-0.597,12.701-9.964,17.662c-3.039,1.609-3.131,4.615-0.142,4.646
	c3.281,0.034,1.443,3.549-2.33,4.454c-7.467,1.791-11.532-6.213-7.469-14.708c4.073-8.515-2.072-4.701-6.643,4.123
	c-5.032,9.713-5.434,14.843-1.488,18.995c2.29,2.41,3.125,4.97,2.884,7.198c3.331-0.371,7.367,0.812,8.305,3.334
	c1.023,2.752,11.962,0.882,21.197-3.622c7.179-3.502,8.542-6.124,2.203-4.238c-7.803,2.321-13.296-0.272-13.234-6.248
	c0.044-4.253,2.862-7.726,3.665-4.519c0.206,0.822,0.918,1.377,1.779,1.386c1.481,0.016,2.414-0.869,6.416-6.086
	c7.005-9.13,18.568-3.904,15.507,7.009c-1.114,3.969-10.417,13.227-15.685,15.607c-3.587,1.62-4.783,3.312-2.357,3.337
	c3.495,0.037,10.229-2.764,14.17-5.895c8.745-6.947,14.478-7.821,21.654-3.301c3.891,2.451,5.028,2.592,6.04,0.748
	c1.657-3.02,5.474-0.388,5.431,3.744c-0.012,1.109-0.543,2.58-1.181,3.27c-1.938,2.097-0.404,2.552,6.768,2.008
	c9.283-0.704,14.391-3.822,17.65-10.773c2.33-4.969,5.515-8.569,9.864-11.149c5.935-3.521,6.675-4.229,7.208-6.913
	c0.898-4.524,3.672-0.714,3.629,4.983c-0.052,6.82-6.823,16.153-13.853,19.093c-2.082,0.871-4.405,1.846-5.16,2.168
	c-0.755,0.321-1.913,0.751-2.574,0.954c-6.186,1.906,14.075,2.1,21.272,0.204c6.751-1.779,11.359-5.481,14.362-11.539
	c2.026-4.088,5.014-6.9,9.894-9.309c2.49-1.229,3.685-2.328,4.442-4.089c1.841-4.279,5.176-0.993,5.086,5.009
	c-0.129,8.606-12.726,19.82-22.241,19.8c-0.658-0.001-1.201,0.325-1.205,0.726c-0.011,1.039,25.211,0.374,30.265-0.798
	c5.408-1.254,7.217-2.59,9.299-6.87c2.443-5.023,4.772-7.092,10.531-9.356c3.684-1.448,5.182-2.431,5.99-3.935l1.077-2.007
	l1.263,1.594c5.281,6.664-2.123,16.032-15.286,19.34c-1.671,0.42-3.183,1.18-3.358,1.689c-0.359,1.04,10.922,0.692,14.672-0.453
	c17.672-5.395,29.295-5.618,45.38-0.869c8.519,2.515,8.68,2.516,11.291,0.037c4.177-3.965,9.917-1.465,9.857,4.293
	c-0.054,5.17-5.254,7.169-9.332,3.588c-2.642-2.321-3.198-2.266-22.52,2.213c-5.927,1.374-12.043,1.551-17.233,0.5
	c-1.801-0.365-5.27-1.061-7.709-1.548c-2.439-0.487-6.708-1.481-9.487-2.206c-8.366-2.185-16.96-1.544-9.285,0.692
	c7.813,2.276,13.568,12.954,9.485,17.601c-1.765,2.009-2.917,1.774-3.86-0.786c-0.318-0.865-2.206-2.526-4.193-3.692
	c-4.139-2.427-6.426-4.753-8.825-8.978c-3.475-6.122-4.922-6.599-21.187-6.972c-13.085-0.3-19.12,0.508-12.049,1.612
	c11.376,1.777,21.318,14.774,16.817,21.984c-1.752,2.807-3.505,2.783-4.793-0.066c-0.75-1.659-2.178-2.815-5.671-4.587
	c-4.301-2.183-4.95-2.817-8.242-8.038c-5.606-8.893-10.009-10.693-26.519-10.845c-9.804-0.09-11.542,0.538-6.257,2.262
	c6.343,2.068,15.179,9.123,16.753,13.376c2.424,6.549,1.627,13.919-1.592,14.725c-1.673,0.419-2.044-0.026-2.018-2.43
	c0.032-3.011-0.963-4.331-5.082-6.745c-3.79-2.221-5.48-4.183-10.662-12.372c-4.018-6.349-6.629-7.621-15.842-7.718l-7.037-0.074
	l0.353,3.274c0.484,4.49-0.922,5.747-3.596,3.216c-2.42-2.29-3.188-2.23-6.294,0.496c-7.181,6.302-11.355,5.991-22.56-1.675
	c-4.221-2.888-7.382-4.509-9.977-5.119c-6.063-1.424-6.038,0.08,0.06,3.606c13.237,7.654,19.044,21.029,11.404,26.263
	c-5.259,3.602-12.701-0.597-17.662-9.964c-1.609-3.039-4.613-3.13-4.644-0.141c-0.034,3.281-3.549,1.443-4.454-2.33
	c-1.791-7.467,6.213-11.533,14.708-7.47c8.515,4.073,4.699-2.072-4.125-6.643c-9.713-5.032-14.841-5.433-18.993-1.487
	c-2.397,2.278-4.943,3.116-7.162,2.888c-0.068,0.365-0.172,0.747-0.314,1.145c-0.398,0.141-0.78,0.246-1.145,0.314
	c0.228,2.219-0.61,4.765-2.888,7.162c-3.946,4.152-3.545,9.28,1.487,18.993c4.571,8.824,10.715,12.639,6.643,4.125
	c-4.063-8.495,0.003-16.499,7.47-14.708c3.773,0.905,5.611,4.419,2.33,4.454c-2.989,0.031-2.898,3.035,0.141,4.644
	c9.367,4.961,13.566,12.403,9.964,17.662c-5.233,7.641-18.608,1.833-26.263-11.404c-3.526-6.098-5.03-6.122-3.606-0.06
	c0.609,2.594,2.231,5.755,5.119,9.977c7.666,11.205,7.977,15.379,1.675,22.56c-2.725,3.105-2.786,3.874-0.496,6.294
	c2.531,2.674,1.274,4.08-3.216,3.596l-3.274-0.353l0.074,7.037c0.096,9.213,1.369,11.824,7.718,15.842
	c8.189,5.182,10.151,6.872,12.372,10.662c2.414,4.119,3.734,5.113,6.745,5.082c2.404-0.025,2.848,0.346,2.43,2.018
	c-0.806,3.219-8.176,4.016-14.725,1.592c-4.254-1.574-11.308-10.41-13.376-16.753c-1.724-5.286-2.352-3.547-2.262,6.257
	c0.152,16.51,1.952,20.913,10.845,26.519c5.222,3.292,5.855,3.941,8.038,8.242c1.773,3.493,2.929,4.922,4.587,5.671
	c2.848,1.287,2.872,3.041,0.065,4.793c-7.211,4.501-20.207-5.441-21.984-16.817c-1.105-7.071-1.912-1.036-1.612,12.049
	c0.373,16.264,0.85,17.712,6.972,21.187c4.226,2.399,6.551,4.686,8.978,8.824c1.165,1.987,2.827,3.874,3.692,4.193
	c2.56,0.943,2.795,2.095,0.786,3.86c-4.647,4.082-15.324-1.672-17.601-9.485c-2.236-7.676-2.877,0.919-0.692,9.285
	c0.726,2.779,1.719,7.048,2.206,9.487c0.487,2.439,1.183,5.909,1.548,7.709c1.051,5.19,0.874,11.306-0.5,17.233
	c-1.596,6.883-2.63,11.385-3.195,14.448c-3.063,0.565-7.565,1.6-14.448,3.195c-5.927,1.374-12.043,1.551-17.233,0.5
	c-1.801-0.365-5.27-1.061-7.709-1.548c-2.439-0.487-6.708-1.48-9.487-2.206c-8.366-2.185-16.96-1.544-9.285,0.692
	c7.813,2.276,13.568,12.954,9.485,17.601c-1.765,2.009-2.917,1.774-3.86-0.786c-0.318-0.865-2.206-2.526-4.193-3.692
	c-4.139-2.427-6.426-4.753-8.824-8.978c-3.475-6.122-4.922-6.599-21.187-6.972c-13.085-0.3-19.12,0.508-12.049,1.612
	c11.376,1.777,21.318,14.774,16.817,21.984c-1.752,2.807-3.505,2.783-4.793-0.065c-0.75-1.659-2.178-2.815-5.671-4.587
	c-4.301-2.183-4.95-2.817-8.242-8.038c-5.606-8.893-10.009-10.693-26.519-10.845c-9.804-0.09-11.542,0.538-6.257,2.262
	c6.343,2.068,15.179,9.123,16.753,13.376c2.424,6.549,1.627,13.919-1.592,14.725c-1.673,0.419-2.044-0.026-2.018-2.43
	c0.032-3.011-0.963-4.331-5.082-6.745c-3.79-2.221-5.48-4.183-10.662-12.372c-4.018-6.349-6.629-7.621-15.842-7.718l-7.037-0.074
	l0.353,3.274c0.484,4.49-0.922,5.747-3.596,3.216c-2.42-2.29-3.188-2.23-6.294,0.496c-7.181,6.302-11.355,5.991-22.56-1.675
	c-4.221-2.888-7.382-4.509-9.977-5.119c-6.063-1.424-6.038,0.08,0.06,3.606c13.237,7.654,19.044,21.029,11.404,26.263
	c-5.259,3.602-12.701-0.596-17.662-9.964c-1.609-3.039-4.613-3.13-4.644-0.141c-0.034,3.281-3.549,1.443-4.454-2.33
	c-1.791-7.467,6.213-11.533,14.708-7.47c8.515,4.073,4.699-2.072-4.125-6.643c-9.713-5.032-14.841-5.433-18.993-1.487
	c-2.397,2.278-4.943,3.116-7.162,2.888c-0.068,0.365-0.172,0.747-0.314,1.145c-0.398,0.141-0.78,0.246-1.145,0.314
	c0.228,2.219-0.61,4.765-2.888,7.162c-3.946,4.152-3.545,9.28,1.487,18.993c4.571,8.824,10.715,12.639,6.643,4.125
	c-4.063-8.495,0.003-16.499,7.47-14.708c3.773,0.905,5.611,4.419,2.33,4.454c-2.989,0.031-2.898,3.035,0.141,4.644
	c9.367,4.961,13.566,12.403,9.964,17.662c-5.233,7.641-18.608,1.833-26.263-11.404c-3.526-6.098-5.03-6.122-3.606-0.06
	c0.609,2.594,2.231,5.755,5.119,9.977c7.666,11.205,7.977,15.379,1.675,22.56c-2.725,3.105-2.786,3.874-0.496,6.294
	c2.531,2.674,1.274,4.08-3.216,3.596l-3.274-0.353l0.074,7.037c0.096,9.213,1.369,11.824,7.718,15.842
	c8.189,5.182,10.151,6.872,12.372,10.662c2.414,4.119,3.734,5.113,6.745,5.082c2.404-0.025,2.848,0.346,2.43,2.018
	c-0.806,3.219-8.176,4.016-14.725,1.592c-4.254-1.574-11.308-10.41-13.376-16.753c-1.724-5.286-2.352-3.547-2.262,6.257
	c0.152,16.51,1.952,20.913,10.845,26.519c5.222,3.292,5.855,3.941,8.038,8.242c1.773,3.493,2.929,4.921,4.587,5.671
	c2.848,1.287,2.872,3.041,0.066,4.793c-7.211,4.501-20.207-5.441-21.984-16.817c-1.105-7.071-1.912-1.036-1.612,12.049
	c0.373,16.264,0.85,17.712,6.972,21.187c4.226,2.399,6.551,4.686,8.978,8.825c1.165,1.987,2.827,3.874,3.692,4.193
	c2.56,0.943,2.795,2.095,0.786,3.86c-4.647,4.082-15.324-1.672-17.601-9.485c-2.236-7.676-2.877,0.919-0.692,9.285
	c0.726,2.779,1.719,7.048,2.206,9.487c0.487,2.439,1.183,5.909,1.548,7.709c1.051,5.19,0.874,11.306-0.5,17.233
	c-4.48,19.321-4.534,19.878-2.213,22.52c3.582,4.077,1.582,9.278-3.588,9.332c-5.757,0.06-8.257-5.68-4.293-9.857
	c2.479-2.611,2.478-2.772-0.037-11.291c-4.749-16.085-4.527-27.708,0.869-45.38c1.145-3.751,1.493-15.031,0.453-14.672
	c-0.509,0.176-1.269,1.687-1.689,3.358c-3.308,13.163-12.676,20.568-19.34,15.286l-1.594-1.263l2.007-1.077
	c1.504-0.808,2.487-2.306,3.935-5.99c2.263-5.759,4.333-8.088,9.356-10.531c4.281-2.082,5.617-3.891,6.87-9.299
	c1.172-5.054,1.836-30.276,0.798-30.265c-0.401,0.004-0.728,0.547-0.726,1.205c0.021,9.515-11.193,22.111-19.8,22.241
	c-6.002,0.09-9.288-3.245-5.009-5.086c1.761-0.758,2.86-1.952,4.089-4.442c2.409-4.88,5.221-7.868,9.309-9.894
	c6.058-3.003,9.76-7.611,11.539-14.362c1.896-7.197,1.702-27.459-0.204-21.272c-0.203,0.66-0.633,1.818-0.954,2.574
	c-0.321,0.755-1.297,3.077-2.168,5.16c-2.94,7.03-12.274,13.802-19.093,13.853c-5.697,0.043-9.507-2.731-4.983-3.629
	c2.684-0.533,3.393-1.272,6.913-7.208c2.58-4.349,6.18-7.534,11.149-9.864c6.951-3.259,10.068-8.368,10.773-17.65
	c0.544-7.171,0.089-8.706-2.008-6.768c-0.69,0.638-2.161,1.169-3.27,1.181c-4.132,0.043-6.764-3.774-3.744-5.431
	c1.844-1.012,1.703-2.149-0.748-6.04c-4.52-7.176-3.646-12.909,3.301-21.654c3.131-3.941,5.931-10.674,5.895-14.17
	c-0.025-2.425-1.717-1.23-3.337,2.357c-2.38,5.268-11.637,14.571-15.607,15.685c-10.913,3.061-16.139-8.502-7.009-15.507
	c5.217-4.003,6.101-4.935,6.086-6.416c-0.009-0.861-0.564-1.573-1.386-1.779c-3.207-0.803,0.267-3.62,4.519-3.665
	c5.976-0.063,8.569,5.431,6.248,13.234c-1.885,6.338,0.737,4.976,4.238-2.203c4.504-9.234,6.374-20.174,3.622-21.197
	c-2.522-0.938-3.705-4.974-3.334-8.305c-2.228,0.241-4.788-0.594-7.198-2.884c-4.152-3.946-9.282-3.543-18.995,1.488
	c-8.824,4.571-12.638,10.715-4.123,6.643c8.495-4.063,16.499,0.001,14.708,7.469c-0.905,3.773-4.419,5.611-4.454,2.33
	c-0.031-2.989-3.036-2.896-4.646,0.142c-4.961,9.367-12.403,13.566-17.662,9.964c-7.641-5.233-1.833-18.608,11.404-26.263
	c6.098-3.526,6.124-5.031,0.061-3.608c-2.594,0.609-5.755,2.232-9.977,5.12c-11.205,7.666-15.379,7.975-22.56,1.673
	c-3.105-2.725-3.874-2.786-6.294-0.496c-2.674,2.531-4.08,1.274-3.596-3.216l0.353-3.273l-0.212-5.335c0,0-1.169-2.161-1.181-3.27
	c-0.043-4.132,3.774-6.764,5.431-3.744c1.012,1.844,2.149,1.703,6.04-0.748c7.176-4.52,12.909-3.646,21.654,3.301
	c3.941,3.131,10.674,5.933,14.17,5.896c2.425-0.025,1.23-1.718-2.357-3.338c-5.268-2.38-14.573-11.636-15.686-15.605
	c-3.061-10.913,8.504-16.139,15.508-7.009c4.003,5.217,4.935,6.101,6.416,6.086c0.861-0.009,1.573-0.565,1.779-1.387
	c0.803-3.207,3.62,0.268,3.665,4.52c0.063,5.976-5.432,8.569-13.235,6.248c-6.338-1.885-4.974,0.737,2.205,4.238
	c9.234,4.504,20.174,6.372,21.197,3.62c0.868-2.335,4.394-3.522,7.556-3.391c0.028-0.179,0.071-0.364,0.127-0.554
	c0.19-0.056,0.375-0.099,0.554-0.127c-0.131-3.162,1.056-6.687,3.391-7.556c2.752-1.023,0.884-11.962-3.62-21.197
	c-3.502-7.179-6.124-8.543-4.239-2.205c2.321,7.803-0.272,13.298-6.248,13.235c-4.252-0.045-7.728-2.862-4.52-3.665
	c0.822-0.206,1.378-0.918,1.387-1.779c0.015-1.481-0.869-2.414-6.086-6.416c-9.13-7.005-3.904-18.57,7.009-15.508
	c3.969,1.114,13.226,10.418,15.605,15.686c1.62,3.587,3.313,4.783,3.338,2.357c0.036-3.495-2.766-10.229-5.896-14.17
	c-6.947-8.745-7.821-14.477-3.301-21.654c2.451-3.891,2.592-5.028,0.748-6.04c-3.02-1.657-0.388-5.474,3.744-5.431
	c1.109,0.012,3.27,1.181,3.27,1.181l5.335,0.212l3.273-0.353c4.49-0.484,5.747,0.922,3.216,3.596c-2.29,2.42-2.23,3.188,0.496,6.294
	c6.302,7.181,5.992,11.355-1.673,22.56c-2.888,4.221-4.511,7.382-5.12,9.977c-1.424,6.063,0.081,6.037,3.608-0.061
	c7.654-13.237,21.029-19.044,26.263-11.404c3.602,5.259-0.597,12.701-9.964,17.662c-3.039,1.609-3.131,4.615-0.142,4.646
	c3.281,0.034,1.443,3.548-2.33,4.454c-7.467,1.791-11.532-6.213-7.469-14.708c4.073-8.515-2.072-4.701-6.643,4.123
	c-5.032,9.713-5.434,14.843-1.488,18.995c2.29,2.41,3.125,4.97,2.884,7.198c3.331-0.371,7.367,0.812,8.305,3.334
	c1.023,2.752,11.962,0.882,21.197-3.622c7.179-3.502,8.542-6.124,2.203-4.238c-7.803,2.321-13.296-0.272-13.234-6.248
	c0.044-4.253,2.862-7.726,3.665-4.519c0.206,0.822,0.918,1.377,1.779,1.386c1.481,0.016,2.414-0.869,6.416-6.086
	c7.005-9.13,18.568-3.904,15.507,7.009c-1.114,3.969-10.417,13.227-15.685,15.607c-3.587,1.62-4.782,3.312-2.357,3.337
	c3.495,0.037,10.229-2.764,14.17-5.895c8.745-6.947,14.478-7.821,21.654-3.301c3.891,2.451,5.028,2.592,6.04,0.748
	c1.657-3.02,5.474-0.388,5.431,3.744c-0.012,1.109-0.543,2.58-1.181,3.27c-1.938,2.097-0.404,2.552,6.768,2.008
	c9.283-0.704,14.391-3.822,17.65-10.773c2.33-4.969,5.515-8.569,9.864-11.149c5.936-3.521,6.675-4.229,7.208-6.913
	c0.898-4.524,3.672-0.714,3.629,4.983c-0.052,6.82-6.823,16.153-13.853,19.093c-2.082,0.871-4.405,1.846-5.16,2.168
	c-0.755,0.321-1.913,0.751-2.574,0.954c-6.186,1.906,14.075,2.1,21.272,0.204c6.751-1.779,11.359-5.481,14.362-11.539
	c2.026-4.088,5.014-6.9,9.894-9.309c2.49-1.229,3.685-2.328,4.442-4.089c1.841-4.279,5.176-0.993,5.086,5.009
	c-0.129,8.606-12.726,19.82-22.241,19.8c-0.658-0.001-1.201,0.325-1.205,0.726c-0.011,1.039,25.211,0.374,30.265-0.798
	c5.408-1.254,7.217-2.59,9.299-6.87c2.443-5.023,4.772-7.092,10.531-9.356c3.684-1.448,5.182-2.431,5.99-3.935l1.077-2.007
	l1.263,1.594c5.281,6.664-2.124,16.032-15.286,19.34c-1.671,0.42-3.183,1.18-3.358,1.689c-0.359,1.04,10.922,0.692,14.672-0.453
	C332.431,354.572,343.483,353.933,357.398,357.398z M1557.045,843.053c-1.144-2.117-3.011-3.702-6.013-5.602
	c-8.189-5.182-10.151-6.872-12.372-10.662c-2.414-4.119-3.734-5.113-6.745-5.082c-2.404,0.025-2.849-0.346-2.43-2.018
	c0.806-3.219,8.176-4.016,14.725-1.592c4.254,1.574,11.308,10.41,13.376,16.753c1.724,5.286,2.352,3.547,2.262-6.257
	c-0.152-16.51-1.952-20.913-10.845-26.519c-5.222-3.292-5.855-3.941-8.038-8.242c-1.773-3.493-2.929-4.922-4.588-5.671
	c-2.848-1.287-2.872-3.041-0.065-4.793c7.211-4.501,20.207,5.441,21.984,16.817c1.105,7.071,1.912,1.036,1.612-12.049
	c-0.373-16.264-0.85-17.712-6.972-21.187c-4.226-2.399-6.551-4.686-8.978-8.825c-1.165-1.987-2.827-3.874-3.692-4.193
	c-2.56-0.943-2.795-2.095-0.786-3.86c4.647-4.082,15.324,1.672,17.601,9.485c2.236,7.676,2.877-0.919,0.692-9.285
	c-0.726-2.779-1.719-7.048-2.206-9.487s-1.183-5.909-1.548-7.709c-1.051-5.19-0.874-11.306,0.5-17.233
	c4.479-19.321,4.534-19.878,2.213-22.52c-3.582-4.077-1.582-9.278,3.588-9.332c5.757-0.06,8.257,5.68,4.293,9.857
	c-2.479,2.611-2.478,2.772,0.037,11.291c4.749,16.085,4.527,27.708-0.869,45.38c-1.145,3.751-1.493,15.031-0.453,14.672
	c0.509-0.176,1.269-1.687,1.689-3.358c3.308-13.163,12.676-20.568,19.34-15.286l1.594,1.263l-2.007,1.077
	c-1.504,0.808-2.487,2.306-3.935,5.99c-2.263,5.759-4.333,8.088-9.356,10.531c-4.281,2.082-5.617,3.891-6.87,9.299
	c-1.172,5.054-1.836,30.276-0.798,30.265c0.401-0.004,0.728-0.547,0.726-1.205c-0.021-9.515,11.193-22.111,19.8-22.241
	c6.002-0.09,9.287,3.245,5.009,5.086c-1.761,0.758-2.86,1.952-4.089,4.442c-2.409,4.88-5.221,7.868-9.309,9.894
	c-6.058,3.003-9.76,7.611-11.539,14.362c-1.896,7.197-1.702,27.459,0.204,21.272c0.203-0.66,0.633-1.818,0.954-2.574
	c0.321-0.755,1.297-3.078,2.168-5.16c2.94-7.03,12.274-13.802,19.093-13.853c5.697-0.043,9.507,2.731,4.983,3.629
	c-2.684,0.533-3.393,1.272-6.913,7.208c-2.58,4.349-6.18,7.534-11.149,9.864c-3.788,1.776-6.438,4.102-8.179,7.353
	c1.741,3.251,4.391,5.577,8.179,7.353c4.969,2.33,8.569,5.515,11.149,9.864c3.521,5.935,4.229,6.675,6.913,7.208
	c4.524,0.898,0.714,3.672-4.983,3.629c-6.82-0.052-16.153-6.823-19.093-13.853c-0.871-2.082-1.846-4.405-2.168-5.16
	c-0.321-0.755-0.751-1.913-0.954-2.574c-1.906-6.186-2.1,14.075-0.204,21.272c1.779,6.751,5.481,11.359,11.539,14.362
	c4.088,2.026,6.9,5.014,9.309,9.894c1.229,2.49,2.328,3.685,4.089,4.442c4.279,1.841,0.993,5.176-5.009,5.086
	c-8.606-0.129-19.82-12.726-19.8-22.241c0.001-0.658-0.325-1.201-0.726-1.205c-1.038-0.011-0.374,25.211,0.798,30.265
	c1.254,5.408,2.589,7.217,6.87,9.299c5.023,2.443,7.092,4.772,9.356,10.531c1.448,3.684,2.431,5.182,3.935,5.99l2.007,1.077
	l-1.594,1.263c-6.664,5.281-16.031-2.124-19.34-15.286c-0.42-1.671-1.18-3.183-1.689-3.358c-1.04-0.359-0.692,10.922,0.453,14.672
	c5.395,17.672,5.618,29.295,0.869,45.38c-2.515,8.519-2.516,8.68-0.037,11.291c3.965,4.177,1.465,9.917-4.293,9.857
	c-5.17-0.054-7.169-5.254-3.588-9.332c2.321-2.642,2.266-3.198-2.213-22.52c-1.374-5.927-1.551-12.043-0.5-17.233
	c0.365-1.801,1.061-5.27,1.548-7.709c0.487-2.439,1.48-6.708,2.206-9.487c2.185-8.366,1.544-16.96-0.692-9.284
	c-2.276,7.813-12.954,13.568-17.601,9.485c-2.009-1.765-1.774-2.917,0.786-3.86c0.865-0.318,2.526-2.206,3.692-4.193
	c2.427-4.139,4.753-6.426,8.978-8.824c6.122-3.475,6.599-4.922,6.972-21.187c0.3-13.085-0.508-19.12-1.612-12.049
	c-1.777,11.376-14.774,21.318-21.984,16.817c-2.807-1.752-2.783-3.505,0.065-4.793c1.659-0.75,2.815-2.178,4.588-5.671
	c2.183-4.301,2.817-4.95,8.038-8.242c8.893-5.606,10.693-10.009,10.845-26.519c0.09-9.804-0.538-11.542-2.262-6.257
	c-2.068,6.343-9.123,15.179-13.376,16.753c-6.549,2.424-13.919,1.627-14.725-1.592c-0.419-1.673,0.026-2.044,2.43-2.018
	c3.011,0.031,4.331-0.963,6.745-5.082c2.221-3.79,4.183-5.48,12.372-10.662C1554.034,846.755,1555.901,845.17,1557.045,843.053z
	 M843.053,1557.045c2.117-1.144,3.702-3.011,5.602-6.013c5.182-8.189,6.872-10.151,10.662-12.372
	c4.119-2.414,5.113-3.734,5.082-6.745c-0.025-2.404,0.346-2.849,2.018-2.43c3.219,0.806,4.016,8.176,1.592,14.725
	c-1.574,4.254-10.41,11.308-16.753,13.376c-5.286,1.724-3.547,2.352,6.257,2.262c16.51-0.152,20.913-1.952,26.519-10.845
	c3.292-5.222,3.941-5.855,8.242-8.038c3.493-1.773,4.922-2.929,5.671-4.588c1.287-2.848,3.041-2.872,4.793-0.065
	c4.501,7.211-5.441,20.207-16.817,21.984c-7.071,1.105-1.036,1.912,12.049,1.612c16.264-0.373,17.712-0.85,21.187-6.972
	c2.399-4.226,4.686-6.551,8.824-8.978c1.987-1.165,3.875-2.827,4.193-3.692c0.943-2.56,2.095-2.795,3.86-0.786
	c4.082,4.647-1.672,15.324-9.485,17.601c-7.676,2.236,0.919,2.877,9.284,0.692c2.779-0.726,7.048-1.719,9.487-2.206
	c2.439-0.487,5.909-1.183,7.709-1.548c5.19-1.051,11.306-0.874,17.233,0.5c19.321,4.479,19.878,4.534,22.52,2.213
	c4.078-3.582,9.278-1.582,9.332,3.588c0.06,5.757-5.68,8.257-9.857,4.293c-2.611-2.479-2.773-2.478-11.291,0.037
	c-16.085,4.749-27.708,4.527-45.38-0.869c-3.751-1.145-15.031-1.493-14.672-0.453c0.176,0.509,1.687,1.269,3.358,1.689
	c13.163,3.308,20.568,12.676,15.286,19.34l-1.263,1.594l-1.077-2.007c-0.808-1.504-2.306-2.487-5.99-3.935
	c-5.759-2.263-8.088-4.333-10.531-9.356c-2.082-4.281-3.891-5.617-9.299-6.87c-5.054-1.172-30.276-1.836-30.265-0.798
	c0.004,0.401,0.547,0.728,1.205,0.726c9.515-0.021,22.111,11.193,22.241,19.8c0.09,6.002-3.245,9.287-5.086,5.009
	c-0.758-1.761-1.952-2.86-4.442-4.089c-4.88-2.409-7.868-5.221-9.894-9.309c-3.003-6.058-7.611-9.76-14.362-11.539
	c-7.197-1.896-27.459-1.702-21.272,0.204c0.66,0.203,1.818,0.633,2.574,0.954c0.755,0.321,3.078,1.297,5.16,2.168
	c7.03,2.94,13.802,12.274,13.853,19.093c0.043,5.697-2.731,9.507-3.629,4.983c-0.533-2.684-1.273-3.393-7.208-6.913
	c-4.349-2.58-7.534-6.18-9.864-11.149c-1.776-3.788-4.102-6.438-7.353-8.179c-3.251,1.741-5.577,4.391-7.353,8.179
	c-2.33,4.969-5.515,8.569-9.864,11.149c-5.936,3.521-6.675,4.229-7.208,6.913c-0.898,4.524-3.672,0.714-3.629-4.983
	c0.052-6.82,6.823-16.153,13.853-19.093c2.082-0.871,4.405-1.846,5.16-2.168c0.755-0.321,1.913-0.751,2.574-0.954
	c6.186-1.906-14.075-2.1-21.272-0.204c-6.751,1.779-11.359,5.481-14.362,11.539c-2.026,4.088-5.014,6.9-9.894,9.309
	c-2.49,1.229-3.685,2.328-4.442,4.089c-1.841,4.279-5.176,0.993-5.086-5.009c0.129-8.606,12.726-19.82,22.241-19.8
	c0.658,0.001,1.201-0.325,1.205-0.726c0.011-1.038-25.211-0.374-30.265,0.798c-5.408,1.254-7.217,2.589-9.299,6.87
	c-2.443,5.023-4.772,7.092-10.531,9.356c-3.684,1.448-5.182,2.431-5.99,3.935l-1.077,2.007l-1.263-1.594
	c-5.281-6.664,2.123-16.031,15.286-19.34c1.671-0.42,3.183-1.18,3.358-1.689c0.359-1.04-10.922-0.692-14.672,0.453
	c-17.672,5.395-29.295,5.618-45.38,0.869c-8.519-2.515-8.68-2.516-11.291-0.037c-4.177,3.965-9.917,1.465-9.857-4.293
	c0.054-5.17,5.254-7.169,9.332-3.588c2.642,2.321,3.198,2.266,22.52-2.213c5.927-1.374,12.043-1.551,17.233-0.5
	c1.801,0.365,5.27,1.061,7.709,1.548s6.708,1.48,9.487,2.206c8.366,2.185,16.96,1.544,9.285-0.692
	c-7.813-2.276-13.568-12.954-9.485-17.601c1.765-2.009,2.917-1.774,3.86,0.786c0.318,0.865,2.206,2.526,4.193,3.692
	c4.139,2.427,6.426,4.753,8.825,8.978c3.475,6.122,4.922,6.599,21.187,6.972c13.085,0.3,19.12-0.508,12.049-1.612
	c-11.376-1.777-21.318-14.774-16.817-21.984c1.752-2.807,3.505-2.783,4.793,0.065c0.75,1.659,2.178,2.815,5.671,4.588
	c4.301,2.183,4.95,2.817,8.242,8.038c5.606,8.893,10.009,10.693,26.519,10.845c9.804,0.09,11.542-0.538,6.257-2.262
	c-6.343-2.068-15.179-9.123-16.753-13.376c-2.424-6.549-1.627-13.919,1.592-14.725c1.673-0.419,2.043,0.026,2.018,2.43
	c-0.032,3.011,0.963,4.331,5.082,6.745c3.79,2.221,5.48,4.183,10.662,12.372C839.351,1554.034,840.936,1555.901,843.053,1557.045z
	 M129.061,843.053c1.144,2.117,3.011,3.702,6.013,5.602c8.189,5.182,10.151,6.872,12.372,10.662
	c2.414,4.119,3.734,5.113,6.745,5.082c2.404-0.025,2.848,0.346,2.43,2.018c-0.806,3.219-8.176,4.016-14.725,1.592
	c-4.254-1.574-11.308-10.41-13.376-16.753c-1.724-5.286-2.352-3.547-2.262,6.257c0.152,16.51,1.952,20.913,10.845,26.519
	c5.222,3.292,5.855,3.941,8.038,8.242c1.773,3.493,2.929,4.922,4.587,5.671c2.848,1.287,2.872,3.041,0.066,4.793
	c-7.211,4.501-20.207-5.441-21.984-16.817c-1.105-7.071-1.912-1.036-1.612,12.049c0.373,16.264,0.85,17.712,6.972,21.187
	c4.226,2.399,6.551,4.686,8.978,8.824c1.165,1.987,2.827,3.875,3.692,4.193c2.56,0.943,2.795,2.095,0.786,3.86
	c-4.647,4.082-15.324-1.672-17.601-9.485c-2.236-7.676-2.877,0.919-0.692,9.284c0.726,2.779,1.719,7.048,2.206,9.487
	c0.487,2.439,1.183,5.909,1.548,7.709c1.051,5.19,0.874,11.306-0.5,17.233c-4.48,19.321-4.534,19.878-2.213,22.52
	c3.582,4.078,1.582,9.278-3.588,9.332c-5.757,0.06-8.257-5.68-4.293-9.857c2.479-2.611,2.478-2.773-0.037-11.291
	c-4.749-16.085-4.527-27.708,0.869-45.38c1.145-3.751,1.493-15.031,0.453-14.672c-0.509,0.176-1.269,1.687-1.689,3.358
	c-3.308,13.163-12.676,20.568-19.34,15.286l-1.594-1.263l2.007-1.077c1.504-0.808,2.487-2.306,3.935-5.99
	c2.263-5.759,4.333-8.088,9.356-10.531c4.281-2.082,5.617-3.891,6.87-9.299c1.172-5.054,1.836-30.276,0.798-30.265
	c-0.401,0.004-0.728,0.547-0.726,1.205c0.021,9.515-11.193,22.111-19.8,22.241c-6.002,0.09-9.288-3.245-5.009-5.086
	c1.761-0.758,2.86-1.952,4.089-4.442c2.409-4.88,5.221-7.868,9.309-9.894c6.058-3.003,9.76-7.611,11.539-14.362
	c1.896-7.197,1.702-27.459-0.204-21.272c-0.203,0.66-0.633,1.818-0.954,2.574c-0.321,0.755-1.297,3.078-2.168,5.16
	c-2.94,7.03-12.274,13.802-19.093,13.853c-5.697,0.043-9.507-2.731-4.983-3.629c2.684-0.533,3.393-1.273,6.913-7.208
	c2.58-4.349,6.18-7.534,11.149-9.864c3.788-1.776,6.438-4.102,8.179-7.353c-1.741-3.251-4.391-5.577-8.179-7.353
	c-4.969-2.33-8.569-5.515-11.149-9.864c-3.521-5.936-4.229-6.675-6.913-7.208c-4.524-0.898-0.714-3.672,4.983-3.629
	c6.82,0.052,16.153,6.823,19.093,13.853c0.871,2.082,1.846,4.405,2.168,5.16c0.321,0.755,0.751,1.913,0.954,2.574
	c1.906,6.186,2.1-14.075,0.204-21.272c-1.779-6.751-5.481-11.359-11.539-14.362c-4.088-2.026-6.9-5.014-9.309-9.894
	c-1.229-2.49-2.328-3.685-4.089-4.442c-4.279-1.841-0.993-5.176,5.009-5.086c8.606,0.129,19.82,12.726,19.8,22.241
	c-0.001,0.658,0.325,1.201,0.726,1.205c1.039,0.011,0.374-25.211-0.798-30.265c-1.254-5.408-2.59-7.217-6.87-9.299
	c-5.023-2.443-7.092-4.772-9.356-10.531c-1.448-3.684-2.431-5.182-3.935-5.99l-2.007-1.077l1.594-1.263
	c6.664-5.281,16.032,2.123,19.34,15.286c0.42,1.671,1.18,3.183,1.689,3.358c1.04,0.359,0.692-10.922-0.453-14.672
	c-5.395-17.672-5.618-29.295-0.869-45.38c2.515-8.519,2.516-8.68,0.037-11.291c-3.965-4.177-1.465-9.917,4.293-9.857
	c5.17,0.054,7.169,5.254,3.588,9.332c-2.321,2.642-2.266,3.198,2.213,22.52c1.374,5.927,1.551,12.043,0.5,17.233
	c-0.365,1.801-1.061,5.27-1.548,7.709c-0.487,2.439-1.481,6.708-2.206,9.487c-2.185,8.366-1.544,16.96,0.692,9.285
	c2.276-7.813,12.954-13.568,17.601-9.485c2.009,1.765,1.774,2.917-0.786,3.86c-0.865,0.318-2.526,2.206-3.692,4.193
	c-2.427,4.139-4.753,6.426-8.978,8.825c-6.122,3.475-6.599,4.922-6.972,21.187c-0.3,13.085,0.508,19.12,1.612,12.049
	c1.777-11.376,14.774-21.318,21.984-16.817c2.807,1.752,2.783,3.505-0.066,4.793c-1.659,0.75-2.815,2.178-4.587,5.671
	c-2.183,4.301-2.817,4.95-8.038,8.242c-8.893,5.606-10.693,10.009-10.845,26.519c-0.09,9.804,0.538,11.542,2.262,6.257
	c2.068-6.343,9.123-15.179,13.376-16.753c6.549-2.424,13.919-1.627,14.725,1.592c0.419,1.673-0.026,2.043-2.43,2.018
	c-3.011-0.032-4.331,0.963-6.745,5.082c-2.221,3.79-4.183,5.48-12.372,10.662C132.072,839.351,130.205,840.936,129.061,843.053z
	 M843.053,129.061c-2.117,1.144-3.702,3.011-5.602,6.013c-5.182,8.189-6.872,10.151-10.662,12.372
	c-4.119,2.414-5.113,3.734-5.082,6.745c0.025,2.404-0.346,2.848-2.018,2.43c-3.219-0.806-4.016-8.176-1.592-14.725
	c1.574-4.254,10.41-11.308,16.753-13.376c5.286-1.724,3.547-2.352-6.257-2.262c-16.51,0.152-20.913,1.952-26.519,10.845
	c-3.292,5.222-3.941,5.855-8.242,8.038c-3.493,1.773-4.922,2.929-5.671,4.587c-1.287,2.848-3.041,2.872-4.793,0.066
	c-4.501-7.211,5.441-20.207,16.817-21.984c7.071-1.105,1.036-1.912-12.049-1.612c-16.264,0.373-17.712,0.85-21.187,6.972
	c-2.399,4.226-4.686,6.551-8.825,8.978c-1.987,1.165-3.874,2.827-4.193,3.692c-0.943,2.56-2.095,2.795-3.86,0.786
	c-4.082-4.647,1.672-15.324,9.485-17.601c7.676-2.236-0.919-2.877-9.285-0.692c-2.779,0.726-7.048,1.719-9.487,2.206
	c-2.439,0.487-5.909,1.183-7.709,1.548c-5.19,1.051-11.306,0.874-17.233-0.5c-19.321-4.48-19.878-4.534-22.52-2.213
	c-4.077,3.582-9.278,1.582-9.332-3.588c-0.06-5.757,5.68-8.257,9.857-4.293c2.611,2.479,2.772,2.478,11.291-0.037
	c16.085-4.749,27.708-4.527,45.38,0.869c3.751,1.145,15.031,1.493,14.672,0.453c-0.176-0.509-1.687-1.269-3.358-1.689
	c-13.163-3.308-20.568-12.676-15.286-19.34l1.263-1.594l1.077,2.007c0.808,1.504,2.306,2.487,5.99,3.935
	c5.759,2.263,8.088,4.333,10.531,9.356c2.082,4.281,3.891,5.617,9.299,6.87c5.054,1.172,30.276,1.836,30.265,0.798
	c-0.004-0.401-0.547-0.728-1.205-0.726c-9.515,0.021-22.111-11.193-22.241-19.8c-0.09-6.002,3.245-9.288,5.086-5.009
	c0.758,1.761,1.952,2.86,4.442,4.089c4.88,2.409,7.868,5.221,9.894,9.309c3.003,6.058,7.611,9.76,14.362,11.539
	c7.197,1.896,27.459,1.702,21.272-0.204c-0.66-0.203-1.818-0.633-2.574-0.954c-0.755-0.321-3.078-1.297-5.16-2.168
	c-7.03-2.94-13.802-12.274-13.853-19.093c-0.043-5.697,2.731-9.507,3.629-4.983c0.533,2.684,1.272,3.393,7.208,6.913
	c4.349,2.58,7.534,6.18,9.864,11.149c1.776,3.788,4.102,6.438,7.353,8.179c3.251-1.741,5.577-4.391,7.353-8.179
	c2.33-4.969,5.515-8.569,9.864-11.149c5.935-3.521,6.675-4.229,7.208-6.913c0.898-4.524,3.672-0.714,3.629,4.983
	c-0.052,6.82-6.823,16.153-13.853,19.093c-2.082,0.871-4.405,1.846-5.16,2.168c-0.755,0.321-1.913,0.751-2.574,0.954
	c-6.186,1.906,14.075,2.1,21.272,0.204c6.751-1.779,11.359-5.481,14.362-11.539c2.026-4.088,5.014-6.9,9.894-9.309
	c2.49-1.229,3.685-2.328,4.442-4.089c1.841-4.279,5.176-0.993,5.086,5.009c-0.129,8.606-12.726,19.82-22.241,19.8
	c-0.658-0.001-1.201,0.325-1.205,0.726c-0.011,1.039,25.211,0.374,30.265-0.798c5.408-1.254,7.217-2.59,9.299-6.87
	c2.443-5.023,4.772-7.092,10.531-9.356c3.684-1.448,5.182-2.431,5.99-3.935l1.077-2.007l1.263,1.594
	c5.281,6.664-2.124,16.032-15.286,19.34c-1.671,0.42-3.183,1.18-3.358,1.689c-0.359,1.04,10.922,0.692,14.672-0.453
	c17.672-5.395,29.295-5.618,45.38-0.869c8.519,2.515,8.68,2.516,11.291,0.037c4.177-3.965,9.917-1.465,9.857,4.293
	c-0.054,5.17-5.254,7.169-9.332,3.588c-2.642-2.321-3.198-2.266-22.52,2.213c-5.927,1.374-12.043,1.551-17.233,0.5
	c-1.801-0.365-5.27-1.061-7.709-1.548c-2.439-0.487-6.708-1.481-9.487-2.206c-8.366-2.185-16.96-1.544-9.284,0.692
	c7.813,2.276,13.568,12.954,9.485,17.601c-1.765,2.009-2.917,1.774-3.86-0.786c-0.318-0.865-2.206-2.526-4.193-3.692
	c-4.139-2.427-6.426-4.753-8.824-8.978c-3.475-6.122-4.922-6.599-21.187-6.972c-13.085-0.3-19.12,0.508-12.049,1.612
	c11.376,1.777,21.318,14.774,16.817,21.984c-1.752,2.807-3.505,2.783-4.793-0.066c-0.75-1.659-2.178-2.815-5.671-4.587
	c-4.301-2.183-4.95-2.817-8.242-8.038c-5.606-8.893-10.009-10.693-26.519-10.845c-9.804-0.09-11.542,0.538-6.257,2.262
	c6.343,2.068,15.179,9.123,16.753,13.376c2.424,6.549,1.627,13.919-1.592,14.725c-1.673,0.419-2.044-0.026-2.018-2.43
	c0.031-3.011-0.963-4.331-5.082-6.745c-3.79-2.221-5.48-4.183-10.662-12.372C846.755,132.072,845.17,130.205,843.053,129.061z
	 M1624.251,358.794c-3.352-0.035-5.864,4.468-3.716,6.661c1.8,1.838,10.226,0.099,11.834-2.443
	C1632.914,362.152,1626.498,358.818,1624.251,358.794z M358.794,61.854c-0.035,3.352,4.468,5.864,6.661,3.716
	c1.838-1.8,0.099-10.226-2.443-11.834C362.152,53.192,358.818,59.608,358.794,61.854z M61.854,1327.311
	c3.352,0.035,5.864-4.468,3.716-6.661c-1.8-1.838-10.226-0.099-11.834,2.443C53.192,1323.953,59.608,1327.288,61.854,1327.311z
	 M1327.311,1624.251c0.035-3.352-4.468-5.864-6.661-3.716c-1.838,1.8-0.099,10.226,2.443,11.834
	C1323.953,1632.914,1327.288,1626.498,1327.311,1624.251z M1632.369,1323.093c-1.608-2.541-10.034-4.28-11.834-2.443
	c-2.148,2.193,0.364,6.696,3.716,6.661C1626.498,1327.288,1632.914,1323.953,1632.369,1323.093z M1323.093,53.736
	c-2.541,1.608-4.28,10.034-2.443,11.834c2.193,2.148,6.696-0.364,6.661-3.716C1327.288,59.608,1323.953,53.192,1323.093,53.736z
	 M53.736,363.013c1.608,2.541,10.034,4.28,11.834,2.443c2.148-2.193-0.364-6.696-3.716-6.661
	C59.608,358.818,53.192,362.152,53.736,363.013z M363.013,1632.369c2.541-1.608,4.28-10.034,2.443-11.834
	c-2.193-2.148-6.696,0.364-6.661,3.716C358.818,1626.498,362.152,1632.914,363.013,1632.369z M1560.232,290.875
	c-2.541,1.608-4.28,10.034-2.443,11.834c2.193,2.148,6.696-0.364,6.661-3.716C1564.427,296.747,1561.092,290.331,1560.232,290.875z
	 M290.875,125.874c1.608,2.541,10.034,4.28,11.834,2.443c2.148-2.193-0.364-6.696-3.716-6.661
	C296.747,121.679,290.331,125.013,290.875,125.874z M125.874,1395.23c2.541-1.608,4.28-10.034,2.443-11.834
	c-2.193-2.148-6.696,0.364-6.661,3.716C121.679,1389.359,125.013,1395.775,125.874,1395.23z M1395.23,1560.232
	c-1.608-2.541-10.034-4.28-11.834-2.443c-2.148,2.193,0.364,6.696,3.716,6.661
	C1389.359,1564.427,1395.775,1561.092,1395.23,1560.232z M1564.45,1387.112c0.035-3.352-4.468-5.864-6.661-3.716
	c-1.838,1.8-0.099,10.226,2.443,11.834C1561.092,1395.775,1564.427,1389.359,1564.45,1387.112z M1387.112,121.656
	c-3.352-0.035-5.864,4.468-3.716,6.661c1.8,1.838,10.226,0.099,11.834-2.443C1395.775,125.013,1389.359,121.679,1387.112,121.656z
	 M121.656,298.993c-0.035,3.352,4.468,5.864,6.661,3.716c1.838-1.8,0.099-10.226-2.443-11.834
	C125.013,290.331,121.679,296.747,121.656,298.993z M298.993,1564.45c3.352,0.035,5.864-4.468,3.716-6.661
	c-1.8-1.838-10.226-0.099-11.834,2.443C290.331,1561.092,296.747,1564.427,298.993,1564.45z M1558.679,364.565
	c0.015,0.169,0.026,0.335,0.035,0.497c1.21-0.397,2.6-0.539,4.119-0.357c-0.318-1.242-0.378-2.651-0.115-4.178
	c-1.527,0.263-2.936,0.203-4.178-0.115c0.182,1.518,0.04,2.909-0.357,4.119C1558.345,364.539,1558.51,364.55,1558.679,364.565z
	 M364.565,127.426c0.169-0.015,0.335-0.026,0.497-0.035c-0.397-1.21-0.539-2.6-0.357-4.119c-1.242,0.318-2.651,0.378-4.178,0.115
	c0.263,1.527,0.203,2.936-0.115,4.178c1.518-0.182,2.909-0.04,4.119,0.357C364.539,127.761,364.55,127.595,364.565,127.426z
	 M127.426,1321.54c-0.015-0.169-0.026-0.335-0.035-0.497c-1.21,0.397-2.6,0.539-4.119,0.358c0.318,1.242,0.378,2.651,0.115,4.178
	c1.527-0.263,2.936-0.203,4.178,0.115c-0.182-1.518-0.04-2.909,0.357-4.119C127.761,1321.567,127.595,1321.555,127.426,1321.54z
	 M1321.54,1558.679c-0.169,0.015-0.335,0.026-0.497,0.035c0.397,1.21,0.539,2.6,0.358,4.119c1.242-0.318,2.651-0.378,4.178-0.115
	c-0.263-1.527-0.203-2.936,0.115-4.178c-1.518,0.182-2.909,0.04-4.119-0.357C1321.567,1558.345,1321.555,1558.51,1321.54,1558.679z
	 M1558.182,1321.575c0.397,1.21,0.539,2.6,0.357,4.119c1.242-0.318,2.651-0.378,4.178-0.115c-0.263-1.527-0.203-2.936,0.115-4.178
	c-1.518,0.182-2.909,0.04-4.119-0.358c-0.008,0.163-0.02,0.328-0.035,0.497C1558.51,1321.555,1558.345,1321.567,1558.182,1321.575z
	 M1321.575,127.924c1.21-0.397,2.6-0.539,4.119-0.357c-0.318-1.242-0.378-2.651-0.115-4.178c-1.527,0.263-2.936,0.203-4.178-0.115
	c0.182,1.518,0.04,2.909-0.358,4.119c0.163,0.008,0.328,0.02,0.497,0.035C1321.555,127.595,1321.567,127.761,1321.575,127.924z
	 M127.924,364.53c-0.397-1.21-0.539-2.6-0.357-4.119c-1.242,0.318-2.651,0.378-4.178,0.115c0.263,1.527,0.203,2.936-0.115,4.178
	c1.518-0.182,2.909-0.04,4.119,0.357c0.008-0.163,0.02-0.328,0.035-0.497C127.595,364.55,127.761,364.539,127.924,364.53z
	 M364.53,1558.182c-1.21,0.397-2.6,0.539-4.119,0.357c0.318,1.242,0.378,2.651,0.115,4.178c1.527-0.263,2.936-0.203,4.178,0.115
	c-0.182-1.518-0.04-2.909,0.357-4.119c-0.163-0.008-0.328-0.02-0.497-0.035C364.55,1558.51,364.539,1558.345,364.53,1558.182z
	 M1560.469,421.815c-0.73,0.014-1.423,0.259-1.971,0.796c-1.838,1.8-0.097,10.226,2.444,11.834c0.861,0.544,4.194-5.872,4.217-8.118
	C1565.185,423.813,1562.659,421.772,1560.469,421.815L1560.469,421.815z M421.815,125.637c0.014,0.73,0.259,1.423,0.796,1.971
	c1.8,1.838,10.226,0.097,11.834-2.444c0.544-0.861-5.872-4.194-8.118-4.217C423.813,120.921,421.772,123.447,421.815,125.637
	L421.815,125.637z M125.637,1264.291c0.73-0.014,1.423-0.259,1.971-0.796c1.838-1.8,0.097-10.226-2.444-11.834
	c-0.861-0.545-4.194,5.872-4.217,8.118C120.921,1262.293,123.447,1264.333,125.637,1264.291L125.637,1264.291z M1264.291,1560.469
	c-0.014-0.73-0.259-1.423-0.796-1.971c-1.8-1.838-10.226-0.097-11.834,2.444c-0.545,0.861,5.872,4.194,8.118,4.217
	C1262.293,1565.185,1264.333,1562.659,1264.291,1560.469L1264.291,1560.469z M1560.469,1264.291c2.19,0.042,4.716-1.998,4.69-4.512
	c-0.024-2.246-3.356-8.663-4.217-8.118c-2.541,1.607-4.282,10.034-2.444,11.834
	C1559.046,1264.032,1559.739,1264.277,1560.469,1264.291L1560.469,1264.291z M1264.291,125.637c0.042-2.19-1.998-4.716-4.512-4.69
	c-2.246,0.024-8.663,3.356-8.118,4.217c1.607,2.541,10.034,4.282,11.834,2.444C1264.032,127.06,1264.277,126.367,1264.291,125.637
	L1264.291,125.637z M125.637,421.815c-2.19-0.043-4.716,1.998-4.69,4.512c0.024,2.246,3.356,8.663,4.217,8.118
	c2.541-1.608,4.282-10.034,2.444-11.834C127.06,422.074,126.367,421.829,125.637,421.815L125.637,421.815z M421.815,1560.469
	c-0.043,2.19,1.998,4.716,4.512,4.69c2.246-0.024,8.663-3.356,8.118-4.217c-1.608-2.541-10.034-4.282-11.834-2.444
	C422.074,1559.046,421.829,1559.739,421.815,1560.469L421.815,1560.469z M1501.43,362.776c0.042-2.19-1.998-4.716-4.512-4.69
	c-2.246,0.024-8.663,3.356-8.118,4.217c1.608,2.541,10.034,4.282,11.834,2.444C1501.17,364.199,1501.416,363.506,1501.43,362.776
	L1501.43,362.776z M362.776,184.676c-2.19-0.043-4.716,1.998-4.69,4.512c0.024,2.246,3.356,8.663,4.217,8.118
	c2.541-1.608,4.282-10.034,2.444-11.834C364.199,184.935,363.506,184.69,362.776,184.676L362.776,184.676z M184.676,1323.33
	c-0.043,2.19,1.998,4.716,4.512,4.69c2.246-0.024,8.663-3.357,8.118-4.217c-1.608-2.541-10.034-4.282-11.834-2.444
	C184.935,1321.907,184.69,1322.6,184.676,1323.33L184.676,1323.33z M1323.33,1501.43c2.19,0.042,4.716-1.998,4.69-4.512
	c-0.024-2.246-3.357-8.663-4.217-8.118c-2.541,1.608-4.282,10.034-2.444,11.834C1321.907,1501.17,1322.6,1501.416,1323.33,1501.43
	L1323.33,1501.43z M1501.43,1323.33c-0.014-0.73-0.259-1.423-0.796-1.971c-1.8-1.838-10.226-0.097-11.834,2.444
	c-0.545,0.861,5.872,4.194,8.118,4.217C1499.432,1328.046,1501.472,1325.52,1501.43,1323.33L1501.43,1323.33z M1323.33,184.676
	c-0.73,0.014-1.423,0.259-1.971,0.796c-1.838,1.8-0.097,10.226,2.444,11.834c0.861,0.544,4.194-5.872,4.217-8.118
	C1328.046,186.674,1325.52,184.634,1323.33,184.676L1323.33,184.676z M184.676,362.776c0.014,0.73,0.259,1.423,0.796,1.971
	c1.8,1.838,10.226,0.097,11.834-2.444c0.544-0.861-5.872-4.194-8.118-4.217C186.674,358.059,184.634,360.586,184.676,362.776
	L184.676,362.776z M362.776,1501.43c0.73-0.014,1.423-0.259,1.971-0.796c1.838-1.8,0.097-10.226-2.444-11.834
	c-0.861-0.545-4.194,5.872-4.217,8.118C358.059,1499.432,360.586,1501.472,362.776,1501.43L362.776,1501.43z"/>
</svg>
