<?xml version="1.0" encoding="UTF-8"?>
<svg fill="#E2B55D" viewBox="0 0 765 990" xmlns="http://www.w3.org/2000/svg">
 <path d="m65.844 57.875 9.9062-2.4688c14.625-20.974 56.67-31.856 89.562 5.9375l6.4688-3.6875c-27.791-34.173-78.877-40.622-105.94 0.21875zm-6.9448 38.872-1.1664-7.5882c-47.378-20.217-14.876-68.462 14.799-49.065l5.6342-4.7638c-40.196-28.808-84.289 37.454-19.267 61.417zm123.48-28.216-4.9062 3.2812c75.962 66.965 116.16-66.193 192.56-12.094-75.606-62.424-116.53 68.433-187.66 8.8125zm-53.656 16.062 1.0248 6.4917c38.684-5.5783 83.897-71.582 137.53-29.106l4.5498-3.9745c-56.782-49.001-109.15 20.993-143.1 26.588zm-38.625-38.625-4.8438 4.3438c9.9964 10.387 10.213 21.031 11.651 37.921l7.193-1.3272c-0.8863-15.139-2.5048-29.798-14-40.938zm12.144 13.447 1.6011 6.2693c13.614 4.4968 18.043 16.404 14.505 38.409l6.284-0.3502c3.7145-23.1 0.57055-39.331-22.39-44.328zm-39.798 17.261c-3.3345 12.646-1.3665 41.171 30.091 41.324l1.1562-6.5c-25.589-1.0174-27.094-23.307-22.094-38.906l-9.1535 4.0827zm-26.409 10.574c-36.963 69.94 103.09 89.263 29.442 195.59l2.2459 6.2812c82.638-109.48-57.003-136.94-25.562-196.88l-6.125-5zm78.364 0.47151c-11.955 4.37-27.35 5.6064-40.013 5.2362l1.1949 5.67c9.5362 1.2753 31.205-1.6046 39.454-4.6278l-0.63602-6.2785zm-16.833 13.872c-0.18293 20.983 1.1447 41.574-24.688 63.594l3.8438 5.3438c26.055-20.618 27.498-39.586 27.312-70.001l-6.4688 1.0634zm9.4688 8.75 0.42648 6.898c43.571-12.032 45.945 12.046 38.355 20.258s-24.994 1.8215-22.625-19.094l-6.0708 0.36949c-3.8507 25.166 20.611 37.605 34.227 24.126 13.543-13.406 3.4713-46.657-44.312-32.558zm-44.938 63.781c-55.534 54.36 15.593 130.91 15.109 173.99-0.48065 42.819-29.028 59.975-29.855 97.018-0.82903 37.128 23.825 66.107 22.791 77.723s-16.029 12.978-15.763-2.4061c-3.3433 19.484 18.623 18.169 18.22 0.93195-0.40201-17.221-21.508-38.522-20.858-75.159 0.66182-37.297 28.889-48.456 30.465-98.108s-68.151-116.04-15.234-169.68l-4.875-4.3125zm26.283-114.84c-17.544 0.04941-33.886 7.5735-42.579 17.365l5.9211 4.7582c7.1999-7.0392 19.513-16.14 39-15.469l-2.3421-6.6549zm462.48 15.416c-16.348-0.91798-40.681-21.985-97.033-21.53s-122.68 52.935-168.95 15.331l-3.6562 4.4062c49.639 41.692 117.54-14.457 172.61-14.831s76.368 18.049 96.471 19.53 24.17-22.191-1.7988-19.585c22.448 1.3762 18.709 17.597 2.3613 16.679zm-494.91 218.82s-13.468 22.534-14.705 35.335c-1.2397 12.822-2.0174 24.873 8.6277 35.801-6.3366-11.474-6.7105-15.966-5.5416-31.522s14.668-33.499 14.668-33.499l-3.0493-6.115z" fill-rule="evenodd"/>
 <path d="m218.46 85.311c6.8522-1.4305 10.775-4.0296 11.244-6.3866-0.49607-3.115-7.4351-1.0132-6.2169-9.6101 0.88045-6.2131 4.5227-1.6998 8.1037 0.0583 0.36041-2.4425-14.522-8.8719-7.3145-13.039 13.73-3.3714 13.046 4.4335 14.442 11.532 0.19231-2.3325 1.0461-3.623 0.24951-6.047 3.5352 2.1856 5.1297 2.2442 5.9781 6.7564 1.5452 8.2174-13.783 17.92-26.486 16.736z" fill-rule="evenodd"/>
 <path d="m228.31 82.485c5.556-1.8258 15.085-13.869 0.24415-23.878 17.763 9.172 5.809 22.938-0.24415 23.878z" fill="#000" fill-rule="evenodd"/>
 <g transform="matrix(1.0582 0 0 1.0582 -15.743 1.287)" fill-rule="evenodd">
  <path d="m202.31 42.39c-1.7665 4.7851-6.3479 7.9313-10.91 9.194 5.1465-3.7178 9.4392-7.2326 6.4971-11.278-2.084-2.9421-9.4697 6.169-12.749 1.9614-3.2202-4.1318-0.35162-4.1698 2.6969-6.9874-2.6077-1.1689-13.154 11.266-15.691 1.7162-2.4573-9.2498 8.3474-9.7725 16.672-8.7036-2.5365-0.97156-4.8569-1.072-7.8455-0.98072-0.99533-4.3309 3.5508-6.7792 10.052-5.026 9.3905 2.5323 13.059 15.281 11.278 20.104z"/>
  <path d="m196.61 48.193c10.343-11.27-2.0025-21.591-21.14-13.496 20.432-11.833 33.8 3.813 21.14 13.496z" fill="#000"/>
 </g>
 <g transform="matrix(-.79794 -.77032 .7361 -.83503 171.01 409.98)" fill-rule="evenodd">
  <path d="m237.23 92.042c-12.269-0.55711-10.959-8.7843-7.1106-13.09-0.49607-3.115-9.0582-1.6866-7.84-10.283 0.88045-6.2131 4.5227-1.6998 8.1037 0.0583 0.36041-2.4425-12.85-9.4125-5.6425-13.579 8.4854-2.5405 12.928 5.2104 13.582 11.324 0.19231-2.3325 0.08178-3.4013 1.6712-4.6869 5.0199 1.9848 2.3507 8.8692-0.99532 11.687-4.5048 3.793-17.992 14.107-1.7686 18.571z"/>
  <path d="m234.3 75.954c4.1389-6.6925-0.36934-14.995-5.7472-17.347 7.613 2.3291 10.428 11.573 5.7472 17.347z" fill="#000"/>
 </g>
 <g transform="matrix(1.114 -.55828 -.60199 -1.0563 -147.45 648.8)" fill-rule="evenodd">
  <path d="m238.43 98.729c-12.704-5.9517-11.639-16.264-7.7914-20.569 0.48956-3.0456-11.466-7.2391-5.0464-12.901 1.1022 2.5015 1.609 3.7854 2.7821 3.1266 2.4279-1.3633-6.5793-5.3754-5.0509-10.055 2.1079-6.4542 15.068-1.8973 15.617 7.6659 0.66735-1.9933 0.22173-2.7374-0.4029-4.476 5.2846 3.6896 4.4955 10.932 0.42451 12.559-6.2295 2.491-17.153 12.129-0.53182 24.649z"/>
  <path d="m232.37 77.085c2.1974-5.3793 5.0991-11.874-5.5152-18.723 11.254 4.9889 9.4342 11.807 5.5152 18.723z" fill="#000"/>
 </g>
 <g transform="matrix(-.73991 -.62513 -.65489 .8707 526.36 146.78)" fill-rule="evenodd">
  <path d="m198.03 32.923c3.3661 0.53257 4.8445 0.85229 8.885 2.5158-4.8644-0.98796-10.525-3.5484-10.474 1.2685 0.02955 2.8275-6.3311 10.414-11.293 5.5599-3.3981-3.6707 0.16609-4.9344 1.8668-6.3104-2.6077-1.1689-10.023 9.6551-14.861 1.0392-5.3016-9.4409 8.6377-10.567 14.937-8.8868-2.5365-0.97156-7.3092-0.37815-6.2491-5.3517 2.3155-1.7176 6.3834-1.3629 11.029 1.5831 6.3057 3.9984 5.1225 5.7633 6.1596 8.5823z"/>
  <path d="m196.09 33.221c-2.887-0.85753-10.718-3.5463-21.846 1.6379 10.382-6.3464 17.411-3.1962 21.846-1.6379z" fill="#000"/>
 </g>
 <g transform="matrix(-.14605 -.78773 -1.1807 .17207 534.75 209.92)" fill-rule="evenodd">
  <path d="m190.1 32.406c2.6196 0.90079 13.516-1.0606 13.959 13.427-3.258-11.855-7.7273-10.259-13.927-11.143 0.72389 2.9317-4.4678 8.954-11.689 8.2098-3.1343-3.006-0.40327-4.864 0.96936-6.8496-2.6077-1.1689-8.6702 8.7076-14.861 1.0392-7.1372-8.8408 8.6377-10.567 14.937-8.8868-2.5365-0.97156-7.3092-0.37815-6.2491-5.3517 2.3155-1.7176 6.3834-1.3629 11.029 1.5831 6.3057 3.9984 4.7944 5.1537 5.8315 7.9727z"/>
  <path d="m187.97 32.728c-5.7911-0.22375-11.581-1.5182-20.629 1.8538 9.7122-4.6354 13.581-2.6481 20.629-1.8538z" fill="#000"/>
 </g>
 <g transform="translate(-163.37 156)" fill-rule="evenodd">
  <path d="m211.09 52.914c-0.74047 17.969 2.9439 27.753 14.928 27.085 4.1102-3.4221-6.7195-3.606-3.9137-11.145 1.8004-4.838 5.444-2.1604 9.4856 0.51892 0.82103-2.1354-14.061-6.4152-6.7004-13.192 10.352-5.0603 13.967 4.4335 15.363 11.532 0.80648-1.4112 1.3532-3.0088 0.5566-5.4329 3.2281 0.80369 4.7006 2.633 4.4427 6.6028-0.52597 8.0965-8.3574 14.797-18.381 14.731-11.228-0.07403-21.153-8.9227-15.781-30.7z"/>
  <path d="m227.23 80.95c8.8247-0.64678 14.114-16.912 1.3189-22.342 15.347 4.4909 7.7695 23.166-1.3189 22.342z" fill="#000"/>
 </g>
 <g transform="matrix(-.18599 .98255 -.98255 -.18599 170.44 150.35)" fill-rule="evenodd">
  <path d="m224.9 85.889c2.9011-2.3583 4.1006-3.3119 5.716-5.3393-3.2767-0.55703-8.5377-7.5508-5.4792-11.547 3.679-4.8076 4.2381 2.1045 6.7449 0.31551 0.37929-2.4461-14.297-4.3827-7.9007-12.146 8.3466-6.5715 15.837 3.28 15.828 9.7072 0.84154-1.5178 0.79386-2.6376 0.10373-4.4568 5.3746 1.3686 5.5159 4.5752 6.1769 8.9065 0.73417 4.8111-3.4029 9.7463-8.1882 9.8975-1.8723 0.05916-3.0735 0.11982-6.1788-0.46336-1.564 0.53249-3.4056 3.2408-6.8225 5.1267z"/>
  <path d="m233.35 79.186c1.8928-5.3768 4.289-14.099-5.7236-20.092 11.321 5.5651 8.5308 14.92 5.7236 20.092z" fill="#000"/> 
  
 </g>
</svg>
